ply
format ascii 1.0
comment created by MATLAB ply_write
element vertex 357
property short x
property float y
property float z
element face 600
property list uchar short vertex_indices
end_header
-1000 -1000.000000 1414.213562 
-960 -1000.000000 1386.217876 
-920 -1000.000000 1358.823020 
-880 -1000.000000 1332.066064 
-840 -1000.000000 1305.986217 
-800 -1000.000000 1280.624847 
-760 -1000.000000 1256.025477 
-720 -1000.000000 1232.233744 
-680 -1000.000000 1209.297317 
-640 -1000.000000 1187.265766 
-600 -1000.000000 1166.190379 
-560 -1000.000000 1146.123903 
-520 -1000.000000 1127.120224 
-480 -1000.000000 1109.233970 
-440 -1000.000000 1092.520023 
-400 -1000.000000 1077.032961 
-360 -1000.000000 1062.826420 
-320 -1000.000000 1049.952380 
-280 -1000.000000 1038.460399 
-240 -1000.000000 1028.396811 
-200 -1000.000000 1019.803903 
-160 -1000.000000 1012.719112 
-120 -1000.000000 1007.174265 
-80 -1000.000000 1003.194896 
-40 -1000.000000 1000.799680 
0 -1000.000000 1000.000000 
40 -1000.000000 1000.799680 
80 -1000.000000 1003.194896 
120 -1000.000000 1007.174265 
160 -1000.000000 1012.719112 
200 -1000.000000 1019.803903 
240 -1000.000000 1028.396811 
280 -1000.000000 1038.460399 
320 -1000.000000 1049.952380 
360 -1000.000000 1062.826420 
400 -1000.000000 1077.032961 
440 -1000.000000 1092.520023 
480 -1000.000000 1109.233970 
520 -1000.000000 1127.120224 
560 -1000.000000 1146.123903 
600 -1000.000000 1166.190379 
640 -1000.000000 1187.265766 
680 -1000.000000 1209.297317 
720 -1000.000000 1232.233744 
760 -1000.000000 1256.025477 
800 -1000.000000 1280.624847 
840 -1000.000000 1305.986217 
880 -1000.000000 1332.066064 
920 -1000.000000 1358.823020 
960 -1000.000000 1386.217876 
1000 -1000.000000 1414.213562 
-1000 -666.666667 1201.850425 
-960 -666.666667 1168.779040 
-920 -666.666667 1136.153354 
-880 -666.666667 1104.012882 
-840 -666.666667 1072.401252 
-800 -666.666667 1041.366623 
-760 -666.666667 1010.962138 
-720 -666.666667 981.246373 
-680 -666.666667 952.283805 
-640 -666.666667 924.145251 
-600 -666.666667 896.908270 
-560 -666.666667 870.657478 
-520 -666.666667 845.484739 
-480 -666.666667 821.489163 
-440 -666.666667 798.776843 
-400 -666.666667 777.460253 
-360 -666.666667 757.657208 
-320 -666.666667 739.489313 
-280 -666.666667 723.079833 
-240 -666.666667 708.550947 
-200 -666.666667 696.020434 
-160 -666.666667 685.597874 
-120 -666.666667 677.380576 
-80 -666.666667 671.449510 
-40 -666.666667 667.865589 
0 -666.666667 666.666667 
40 -666.666667 667.865589 
80 -666.666667 671.449510 
120 -666.666667 677.380576 
160 -666.666667 685.597874 
200 -666.666667 696.020434 
240 -666.666667 708.550947 
280 -666.666667 723.079833 
320 -666.666667 739.489313 
360 -666.666667 757.657208 
400 -666.666667 777.460253 
440 -666.666667 798.776843 
480 -666.666667 821.489163 
520 -666.666667 845.484739 
560 -666.666667 870.657478 
600 -666.666667 896.908270 
640 -666.666667 924.145251 
680 -666.666667 952.283805 
720 -666.666667 981.246373 
760 -666.666667 1010.962138 
800 -666.666667 1041.366623 
840 -666.666667 1072.401252 
880 -666.666667 1104.012882 
920 -666.666667 1136.153354 
960 -666.666667 1168.779040 
1000 -666.666667 1201.850425 
-1000 -333.333333 1054.092553 
-960 -333.333333 1016.223947 
-920 -333.333333 978.524967 
-880 -333.333333 941.015999 
-840 -333.333333 903.720704 
-800 -333.333333 866.666667 
-760 -333.333333 829.886204 
-720 -333.333333 793.417362 
-680 -333.333333 757.305164 
-640 -333.333333 721.603153 
-600 -333.333333 686.375343 
-560 -333.333333 651.698635 
-520 -333.333333 617.665857 
-480 -333.333333 584.389520 
-440 -333.333333 552.006441 
-400 -333.333333 520.683312 
-360 -333.333333 490.623186 
-320 -333.333333 462.072625 
-280 -333.333333 435.328739 
-240 -333.333333 410.744581 
-200 -333.333333 388.730126 
-160 -333.333333 369.744657 
-120 -333.333333 354.275473 
-80 -333.333333 342.798937 
-40 -333.333333 335.724755 
0 -333.333333 333.333333 
40 -333.333333 335.724755 
80 -333.333333 342.798937 
120 -333.333333 354.275473 
160 -333.333333 369.744657 
200 -333.333333 388.730126 
240 -333.333333 410.744581 
280 -333.333333 435.328739 
320 -333.333333 462.072625 
360 -333.333333 490.623186 
400 -333.333333 520.683312 
440 -333.333333 552.006441 
480 -333.333333 584.389520 
520 -333.333333 617.665857 
560 -333.333333 651.698635 
600 -333.333333 686.375343 
640 -333.333333 721.603153 
680 -333.333333 757.305164 
720 -333.333333 793.417362 
760 -333.333333 829.886204 
800 -333.333333 866.666667 
840 -333.333333 903.720704 
880 -333.333333 941.015999 
920 -333.333333 978.524967 
960 -333.333333 1016.223947 
1000 -333.333333 1054.092553 
-1000 0.000000 1000.000000 
-960 0.000000 960.000000 
-920 0.000000 920.000000 
-880 0.000000 880.000000 
-840 0.000000 840.000000 
-800 0.000000 800.000000 
-760 0.000000 760.000000 
-720 0.000000 720.000000 
-680 0.000000 680.000000 
-640 0.000000 640.000000 
-600 0.000000 600.000000 
-560 0.000000 560.000000 
-520 0.000000 520.000000 
-480 0.000000 480.000000 
-440 0.000000 440.000000 
-400 0.000000 400.000000 
-360 0.000000 360.000000 
-320 0.000000 320.000000 
-280 0.000000 280.000000 
-240 0.000000 240.000000 
-200 0.000000 200.000000 
-160 0.000000 160.000000 
-120 0.000000 120.000000 
-80 0.000000 80.000000 
-40 0.000000 40.000000 
0 0.000000 0.000000 
40 0.000000 40.000000 
80 0.000000 80.000000 
120 0.000000 120.000000 
160 0.000000 160.000000 
200 0.000000 200.000000 
240 0.000000 240.000000 
280 0.000000 280.000000 
320 0.000000 320.000000 
360 0.000000 360.000000 
400 0.000000 400.000000 
440 0.000000 440.000000 
480 0.000000 480.000000 
520 0.000000 520.000000 
560 0.000000 560.000000 
600 0.000000 600.000000 
640 0.000000 640.000000 
680 0.000000 680.000000 
720 0.000000 720.000000 
760 0.000000 760.000000 
800 0.000000 800.000000 
840 0.000000 840.000000 
880 0.000000 880.000000 
920 0.000000 920.000000 
960 0.000000 960.000000 
1000 0.000000 1000.000000 
-1000 333.333333 1054.092553 
-960 333.333333 1016.223947 
-920 333.333333 978.524967 
-880 333.333333 941.015999 
-840 333.333333 903.720704 
-800 333.333333 866.666667 
-760 333.333333 829.886204 
-720 333.333333 793.417362 
-680 333.333333 757.305164 
-640 333.333333 721.603153 
-600 333.333333 686.375343 
-560 333.333333 651.698635 
-520 333.333333 617.665857 
-480 333.333333 584.389520 
-440 333.333333 552.006441 
-400 333.333333 520.683312 
-360 333.333333 490.623186 
-320 333.333333 462.072625 
-280 333.333333 435.328739 
-240 333.333333 410.744581 
-200 333.333333 388.730126 
-160 333.333333 369.744657 
-120 333.333333 354.275473 
-80 333.333333 342.798937 
-40 333.333333 335.724755 
0 333.333333 333.333333 
40 333.333333 335.724755 
80 333.333333 342.798937 
120 333.333333 354.275473 
160 333.333333 369.744657 
200 333.333333 388.730126 
240 333.333333 410.744581 
280 333.333333 435.328739 
320 333.333333 462.072625 
360 333.333333 490.623186 
400 333.333333 520.683312 
440 333.333333 552.006441 
480 333.333333 584.389520 
520 333.333333 617.665857 
560 333.333333 651.698635 
600 333.333333 686.375343 
640 333.333333 721.603153 
680 333.333333 757.305164 
720 333.333333 793.417362 
760 333.333333 829.886204 
800 333.333333 866.666667 
840 333.333333 903.720704 
880 333.333333 941.015999 
920 333.333333 978.524967 
960 333.333333 1016.223947 
1000 333.333333 1054.092553 
-1000 666.666667 1201.850425 
-960 666.666667 1168.779040 
-920 666.666667 1136.153354 
-880 666.666667 1104.012882 
-840 666.666667 1072.401252 
-800 666.666667 1041.366623 
-760 666.666667 1010.962138 
-720 666.666667 981.246373 
-680 666.666667 952.283805 
-640 666.666667 924.145251 
-600 666.666667 896.908270 
-560 666.666667 870.657478 
-520 666.666667 845.484739 
-480 666.666667 821.489163 
-440 666.666667 798.776843 
-400 666.666667 777.460253 
-360 666.666667 757.657208 
-320 666.666667 739.489313 
-280 666.666667 723.079833 
-240 666.666667 708.550947 
-200 666.666667 696.020434 
-160 666.666667 685.597874 
-120 666.666667 677.380576 
-80 666.666667 671.449510 
-40 666.666667 667.865589 
0 666.666667 666.666667 
40 666.666667 667.865589 
80 666.666667 671.449510 
120 666.666667 677.380576 
160 666.666667 685.597874 
200 666.666667 696.020434 
240 666.666667 708.550947 
280 666.666667 723.079833 
320 666.666667 739.489313 
360 666.666667 757.657208 
400 666.666667 777.460253 
440 666.666667 798.776843 
480 666.666667 821.489163 
520 666.666667 845.484739 
560 666.666667 870.657478 
600 666.666667 896.908270 
640 666.666667 924.145251 
680 666.666667 952.283805 
720 666.666667 981.246373 
760 666.666667 1010.962138 
800 666.666667 1041.366623 
840 666.666667 1072.401252 
880 666.666667 1104.012882 
920 666.666667 1136.153354 
960 666.666667 1168.779040 
1000 666.666667 1201.850425 
-1000 1000.000000 1414.213562 
-960 1000.000000 1386.217876 
-920 1000.000000 1358.823020 
-880 1000.000000 1332.066064 
-840 1000.000000 1305.986217 
-800 1000.000000 1280.624847 
-760 1000.000000 1256.025477 
-720 1000.000000 1232.233744 
-680 1000.000000 1209.297317 
-640 1000.000000 1187.265766 
-600 1000.000000 1166.190379 
-560 1000.000000 1146.123903 
-520 1000.000000 1127.120224 
-480 1000.000000 1109.233970 
-440 1000.000000 1092.520023 
-400 1000.000000 1077.032961 
-360 1000.000000 1062.826420 
-320 1000.000000 1049.952380 
-280 1000.000000 1038.460399 
-240 1000.000000 1028.396811 
-200 1000.000000 1019.803903 
-160 1000.000000 1012.719112 
-120 1000.000000 1007.174265 
-80 1000.000000 1003.194896 
-40 1000.000000 1000.799680 
0 1000.000000 1000.000000 
40 1000.000000 1000.799680 
80 1000.000000 1003.194896 
120 1000.000000 1007.174265 
160 1000.000000 1012.719112 
200 1000.000000 1019.803903 
240 1000.000000 1028.396811 
280 1000.000000 1038.460399 
320 1000.000000 1049.952380 
360 1000.000000 1062.826420 
400 1000.000000 1077.032961 
440 1000.000000 1092.520023 
480 1000.000000 1109.233970 
520 1000.000000 1127.120224 
560 1000.000000 1146.123903 
600 1000.000000 1166.190379 
640 1000.000000 1187.265766 
680 1000.000000 1209.297317 
720 1000.000000 1232.233744 
760 1000.000000 1256.025477 
800 1000.000000 1280.624847 
840 1000.000000 1305.986217 
880 1000.000000 1332.066064 
920 1000.000000 1358.823020 
960 1000.000000 1386.217876 
1000 1000.000000 1414.213562 
3 0 1 51 
3 1 2 52 
3 2 3 53 
3 3 4 54 
3 4 5 55 
3 5 6 56 
3 6 7 57 
3 7 8 58 
3 8 9 59 
3 9 10 60 
3 10 11 61 
3 11 12 62 
3 12 13 63 
3 13 14 64 
3 14 15 65 
3 15 16 66 
3 16 17 67 
3 17 18 68 
3 18 19 69 
3 19 20 70 
3 20 21 71 
3 21 22 72 
3 22 23 73 
3 23 24 74 
3 24 25 75 
3 25 26 76 
3 26 27 77 
3 27 28 78 
3 28 29 79 
3 29 30 80 
3 30 31 81 
3 31 32 82 
3 32 33 83 
3 33 34 84 
3 34 35 85 
3 35 36 86 
3 36 37 87 
3 37 38 88 
3 38 39 89 
3 39 40 90 
3 40 41 91 
3 41 42 92 
3 42 43 93 
3 43 44 94 
3 44 45 95 
3 45 46 96 
3 46 47 97 
3 47 48 98 
3 48 49 99 
3 49 50 100 
3 51 52 102 
3 52 53 103 
3 53 54 104 
3 54 55 105 
3 55 56 106 
3 56 57 107 
3 57 58 108 
3 58 59 109 
3 59 60 110 
3 60 61 111 
3 61 62 112 
3 62 63 113 
3 63 64 114 
3 64 65 115 
3 65 66 116 
3 66 67 117 
3 67 68 118 
3 68 69 119 
3 69 70 120 
3 70 71 121 
3 71 72 122 
3 72 73 123 
3 73 74 124 
3 74 75 125 
3 75 76 126 
3 76 77 127 
3 77 78 128 
3 78 79 129 
3 79 80 130 
3 80 81 131 
3 81 82 132 
3 82 83 133 
3 83 84 134 
3 84 85 135 
3 85 86 136 
3 86 87 137 
3 87 88 138 
3 88 89 139 
3 89 90 140 
3 90 91 141 
3 91 92 142 
3 92 93 143 
3 93 94 144 
3 94 95 145 
3 95 96 146 
3 96 97 147 
3 97 98 148 
3 98 99 149 
3 99 100 150 
3 100 101 151 
3 102 103 153 
3 103 104 154 
3 104 105 155 
3 105 106 156 
3 106 107 157 
3 107 108 158 
3 108 109 159 
3 109 110 160 
3 110 111 161 
3 111 112 162 
3 112 113 163 
3 113 114 164 
3 114 115 165 
3 115 116 166 
3 116 117 167 
3 117 118 168 
3 118 119 169 
3 119 120 170 
3 120 121 171 
3 121 122 172 
3 122 123 173 
3 123 124 174 
3 124 125 175 
3 125 126 176 
3 126 127 177 
3 127 128 178 
3 128 129 179 
3 129 130 180 
3 130 131 181 
3 131 132 182 
3 132 133 183 
3 133 134 184 
3 134 135 185 
3 135 136 186 
3 136 137 187 
3 137 138 188 
3 138 139 189 
3 139 140 190 
3 140 141 191 
3 141 142 192 
3 142 143 193 
3 143 144 194 
3 144 145 195 
3 145 146 196 
3 146 147 197 
3 147 148 198 
3 148 149 199 
3 149 150 200 
3 150 151 201 
3 151 152 202 
3 153 154 204 
3 154 155 205 
3 155 156 206 
3 156 157 207 
3 157 158 208 
3 158 159 209 
3 159 160 210 
3 160 161 211 
3 161 162 212 
3 162 163 213 
3 163 164 214 
3 164 165 215 
3 165 166 216 
3 166 167 217 
3 167 168 218 
3 168 169 219 
3 169 170 220 
3 170 171 221 
3 171 172 222 
3 172 173 223 
3 173 174 224 
3 174 175 225 
3 175 176 226 
3 176 177 227 
3 177 178 228 
3 178 179 229 
3 179 180 230 
3 180 181 231 
3 181 182 232 
3 182 183 233 
3 183 184 234 
3 184 185 235 
3 185 186 236 
3 186 187 237 
3 187 188 238 
3 188 189 239 
3 189 190 240 
3 190 191 241 
3 191 192 242 
3 192 193 243 
3 193 194 244 
3 194 195 245 
3 195 196 246 
3 196 197 247 
3 197 198 248 
3 198 199 249 
3 199 200 250 
3 200 201 251 
3 201 202 252 
3 202 203 253 
3 204 205 255 
3 205 206 256 
3 206 207 257 
3 207 208 258 
3 208 209 259 
3 209 210 260 
3 210 211 261 
3 211 212 262 
3 212 213 263 
3 213 214 264 
3 214 215 265 
3 215 216 266 
3 216 217 267 
3 217 218 268 
3 218 219 269 
3 219 220 270 
3 220 221 271 
3 221 222 272 
3 222 223 273 
3 223 224 274 
3 224 225 275 
3 225 226 276 
3 226 227 277 
3 227 228 278 
3 228 229 279 
3 229 230 280 
3 230 231 281 
3 231 232 282 
3 232 233 283 
3 233 234 284 
3 234 235 285 
3 235 236 286 
3 236 237 287 
3 237 238 288 
3 238 239 289 
3 239 240 290 
3 240 241 291 
3 241 242 292 
3 242 243 293 
3 243 244 294 
3 244 245 295 
3 245 246 296 
3 246 247 297 
3 247 248 298 
3 248 249 299 
3 249 250 300 
3 250 251 301 
3 251 252 302 
3 252 253 303 
3 253 254 304 
3 255 256 306 
3 256 257 307 
3 257 258 308 
3 258 259 309 
3 259 260 310 
3 260 261 311 
3 261 262 312 
3 262 263 313 
3 263 264 314 
3 264 265 315 
3 265 266 316 
3 266 267 317 
3 267 268 318 
3 268 269 319 
3 269 270 320 
3 270 271 321 
3 271 272 322 
3 272 273 323 
3 273 274 324 
3 274 275 325 
3 275 276 326 
3 276 277 327 
3 277 278 328 
3 278 279 329 
3 279 280 330 
3 280 281 331 
3 281 282 332 
3 282 283 333 
3 283 284 334 
3 284 285 335 
3 285 286 336 
3 286 287 337 
3 287 288 338 
3 288 289 339 
3 289 290 340 
3 290 291 341 
3 291 292 342 
3 292 293 343 
3 293 294 344 
3 294 295 345 
3 295 296 346 
3 296 297 347 
3 297 298 348 
3 298 299 349 
3 299 300 350 
3 300 301 351 
3 301 302 352 
3 302 303 353 
3 303 304 354 
3 304 305 355 
3 1 52 51 
3 2 53 52 
3 3 54 53 
3 4 55 54 
3 5 56 55 
3 6 57 56 
3 7 58 57 
3 8 59 58 
3 9 60 59 
3 10 61 60 
3 11 62 61 
3 12 63 62 
3 13 64 63 
3 14 65 64 
3 15 66 65 
3 16 67 66 
3 17 68 67 
3 18 69 68 
3 19 70 69 
3 20 71 70 
3 21 72 71 
3 22 73 72 
3 23 74 73 
3 24 75 74 
3 25 76 75 
3 26 77 76 
3 27 78 77 
3 28 79 78 
3 29 80 79 
3 30 81 80 
3 31 82 81 
3 32 83 82 
3 33 84 83 
3 34 85 84 
3 35 86 85 
3 36 87 86 
3 37 88 87 
3 38 89 88 
3 39 90 89 
3 40 91 90 
3 41 92 91 
3 42 93 92 
3 43 94 93 
3 44 95 94 
3 45 96 95 
3 46 97 96 
3 47 98 97 
3 48 99 98 
3 49 100 99 
3 50 101 100 
3 52 103 102 
3 53 104 103 
3 54 105 104 
3 55 106 105 
3 56 107 106 
3 57 108 107 
3 58 109 108 
3 59 110 109 
3 60 111 110 
3 61 112 111 
3 62 113 112 
3 63 114 113 
3 64 115 114 
3 65 116 115 
3 66 117 116 
3 67 118 117 
3 68 119 118 
3 69 120 119 
3 70 121 120 
3 71 122 121 
3 72 123 122 
3 73 124 123 
3 74 125 124 
3 75 126 125 
3 76 127 126 
3 77 128 127 
3 78 129 128 
3 79 130 129 
3 80 131 130 
3 81 132 131 
3 82 133 132 
3 83 134 133 
3 84 135 134 
3 85 136 135 
3 86 137 136 
3 87 138 137 
3 88 139 138 
3 89 140 139 
3 90 141 140 
3 91 142 141 
3 92 143 142 
3 93 144 143 
3 94 145 144 
3 95 146 145 
3 96 147 146 
3 97 148 147 
3 98 149 148 
3 99 150 149 
3 100 151 150 
3 101 152 151 
3 103 154 153 
3 104 155 154 
3 105 156 155 
3 106 157 156 
3 107 158 157 
3 108 159 158 
3 109 160 159 
3 110 161 160 
3 111 162 161 
3 112 163 162 
3 113 164 163 
3 114 165 164 
3 115 166 165 
3 116 167 166 
3 117 168 167 
3 118 169 168 
3 119 170 169 
3 120 171 170 
3 121 172 171 
3 122 173 172 
3 123 174 173 
3 124 175 174 
3 125 176 175 
3 126 177 176 
3 127 178 177 
3 128 179 178 
3 129 180 179 
3 130 181 180 
3 131 182 181 
3 132 183 182 
3 133 184 183 
3 134 185 184 
3 135 186 185 
3 136 187 186 
3 137 188 187 
3 138 189 188 
3 139 190 189 
3 140 191 190 
3 141 192 191 
3 142 193 192 
3 143 194 193 
3 144 195 194 
3 145 196 195 
3 146 197 196 
3 147 198 197 
3 148 199 198 
3 149 200 199 
3 150 201 200 
3 151 202 201 
3 152 203 202 
3 154 205 204 
3 155 206 205 
3 156 207 206 
3 157 208 207 
3 158 209 208 
3 159 210 209 
3 160 211 210 
3 161 212 211 
3 162 213 212 
3 163 214 213 
3 164 215 214 
3 165 216 215 
3 166 217 216 
3 167 218 217 
3 168 219 218 
3 169 220 219 
3 170 221 220 
3 171 222 221 
3 172 223 222 
3 173 224 223 
3 174 225 224 
3 175 226 225 
3 176 227 226 
3 177 228 227 
3 178 229 228 
3 179 230 229 
3 180 231 230 
3 181 232 231 
3 182 233 232 
3 183 234 233 
3 184 235 234 
3 185 236 235 
3 186 237 236 
3 187 238 237 
3 188 239 238 
3 189 240 239 
3 190 241 240 
3 191 242 241 
3 192 243 242 
3 193 244 243 
3 194 245 244 
3 195 246 245 
3 196 247 246 
3 197 248 247 
3 198 249 248 
3 199 250 249 
3 200 251 250 
3 201 252 251 
3 202 253 252 
3 203 254 253 
3 205 256 255 
3 206 257 256 
3 207 258 257 
3 208 259 258 
3 209 260 259 
3 210 261 260 
3 211 262 261 
3 212 263 262 
3 213 264 263 
3 214 265 264 
3 215 266 265 
3 216 267 266 
3 217 268 267 
3 218 269 268 
3 219 270 269 
3 220 271 270 
3 221 272 271 
3 222 273 272 
3 223 274 273 
3 224 275 274 
3 225 276 275 
3 226 277 276 
3 227 278 277 
3 228 279 278 
3 229 280 279 
3 230 281 280 
3 231 282 281 
3 232 283 282 
3 233 284 283 
3 234 285 284 
3 235 286 285 
3 236 287 286 
3 237 288 287 
3 238 289 288 
3 239 290 289 
3 240 291 290 
3 241 292 291 
3 242 293 292 
3 243 294 293 
3 244 295 294 
3 245 296 295 
3 246 297 296 
3 247 298 297 
3 248 299 298 
3 249 300 299 
3 250 301 300 
3 251 302 301 
3 252 303 302 
3 253 304 303 
3 254 305 304 
3 256 307 306 
3 257 308 307 
3 258 309 308 
3 259 310 309 
3 260 311 310 
3 261 312 311 
3 262 313 312 
3 263 314 313 
3 264 315 314 
3 265 316 315 
3 266 317 316 
3 267 318 317 
3 268 319 318 
3 269 320 319 
3 270 321 320 
3 271 322 321 
3 272 323 322 
3 273 324 323 
3 274 325 324 
3 275 326 325 
3 276 327 326 
3 277 328 327 
3 278 329 328 
3 279 330 329 
3 280 331 330 
3 281 332 331 
3 282 333 332 
3 283 334 333 
3 284 335 334 
3 285 336 335 
3 286 337 336 
3 287 338 337 
3 288 339 338 
3 289 340 339 
3 290 341 340 
3 291 342 341 
3 292 343 342 
3 293 344 343 
3 294 345 344 
3 295 346 345 
3 296 347 346 
3 297 348 347 
3 298 349 348 
3 299 350 349 
3 300 351 350 
3 301 352 351 
3 302 353 352 
3 303 354 353 
3 304 355 354 
3 305 356 355 
