ply
format ascii 1.0
comment created by MATLAB ply_write
element vertex 102
property short x
property short y
property float z
element face 100
property list uchar char vertex_indices
end_header
-1000 -1000 1414.213562 
-960 -1000 1386.217876 
-920 -1000 1358.823020 
-880 -1000 1332.066064 
-840 -1000 1305.986217 
-800 -1000 1280.624847 
-760 -1000 1256.025477 
-720 -1000 1232.233744 
-680 -1000 1209.297317 
-640 -1000 1187.265766 
-600 -1000 1166.190379 
-560 -1000 1146.123903 
-520 -1000 1127.120224 
-480 -1000 1109.233970 
-440 -1000 1092.520023 
-400 -1000 1077.032961 
-360 -1000 1062.826420 
-320 -1000 1049.952380 
-280 -1000 1038.460399 
-240 -1000 1028.396811 
-200 -1000 1019.803903 
-160 -1000 1012.719112 
-120 -1000 1007.174265 
-80 -1000 1003.194896 
-40 -1000 1000.799680 
0 -1000 1000.000000 
40 -1000 1000.799680 
80 -1000 1003.194896 
120 -1000 1007.174265 
160 -1000 1012.719112 
200 -1000 1019.803903 
240 -1000 1028.396811 
280 -1000 1038.460399 
320 -1000 1049.952380 
360 -1000 1062.826420 
400 -1000 1077.032961 
440 -1000 1092.520023 
480 -1000 1109.233970 
520 -1000 1127.120224 
560 -1000 1146.123903 
600 -1000 1166.190379 
640 -1000 1187.265766 
680 -1000 1209.297317 
720 -1000 1232.233744 
760 -1000 1256.025477 
800 -1000 1280.624847 
840 -1000 1305.986217 
880 -1000 1332.066064 
920 -1000 1358.823020 
960 -1000 1386.217876 
1000 -1000 1414.213562 
-1000 1000 1414.213562 
-960 1000 1386.217876 
-920 1000 1358.823020 
-880 1000 1332.066064 
-840 1000 1305.986217 
-800 1000 1280.624847 
-760 1000 1256.025477 
-720 1000 1232.233744 
-680 1000 1209.297317 
-640 1000 1187.265766 
-600 1000 1166.190379 
-560 1000 1146.123903 
-520 1000 1127.120224 
-480 1000 1109.233970 
-440 1000 1092.520023 
-400 1000 1077.032961 
-360 1000 1062.826420 
-320 1000 1049.952380 
-280 1000 1038.460399 
-240 1000 1028.396811 
-200 1000 1019.803903 
-160 1000 1012.719112 
-120 1000 1007.174265 
-80 1000 1003.194896 
-40 1000 1000.799680 
0 1000 1000.000000 
40 1000 1000.799680 
80 1000 1003.194896 
120 1000 1007.174265 
160 1000 1012.719112 
200 1000 1019.803903 
240 1000 1028.396811 
280 1000 1038.460399 
320 1000 1049.952380 
360 1000 1062.826420 
400 1000 1077.032961 
440 1000 1092.520023 
480 1000 1109.233970 
520 1000 1127.120224 
560 1000 1146.123903 
600 1000 1166.190379 
640 1000 1187.265766 
680 1000 1209.297317 
720 1000 1232.233744 
760 1000 1256.025477 
800 1000 1280.624847 
840 1000 1305.986217 
880 1000 1332.066064 
920 1000 1358.823020 
960 1000 1386.217876 
1000 1000 1414.213562 
3 0 1 51 
3 1 2 52 
3 2 3 53 
3 3 4 54 
3 4 5 55 
3 5 6 56 
3 6 7 57 
3 7 8 58 
3 8 9 59 
3 9 10 60 
3 10 11 61 
3 11 12 62 
3 12 13 63 
3 13 14 64 
3 14 15 65 
3 15 16 66 
3 16 17 67 
3 17 18 68 
3 18 19 69 
3 19 20 70 
3 20 21 71 
3 21 22 72 
3 22 23 73 
3 23 24 74 
3 24 25 75 
3 25 26 76 
3 26 27 77 
3 27 28 78 
3 28 29 79 
3 29 30 80 
3 30 31 81 
3 31 32 82 
3 32 33 83 
3 33 34 84 
3 34 35 85 
3 35 36 86 
3 36 37 87 
3 37 38 88 
3 38 39 89 
3 39 40 90 
3 40 41 91 
3 41 42 92 
3 42 43 93 
3 43 44 94 
3 44 45 95 
3 45 46 96 
3 46 47 97 
3 47 48 98 
3 48 49 99 
3 49 50 100 
3 1 52 51 
3 2 53 52 
3 3 54 53 
3 4 55 54 
3 5 56 55 
3 6 57 56 
3 7 58 57 
3 8 59 58 
3 9 60 59 
3 10 61 60 
3 11 62 61 
3 12 63 62 
3 13 64 63 
3 14 65 64 
3 15 66 65 
3 16 67 66 
3 17 68 67 
3 18 69 68 
3 19 70 69 
3 20 71 70 
3 21 72 71 
3 22 73 72 
3 23 74 73 
3 24 75 74 
3 25 76 75 
3 26 77 76 
3 27 78 77 
3 28 79 78 
3 29 80 79 
3 30 81 80 
3 31 82 81 
3 32 83 82 
3 33 84 83 
3 34 85 84 
3 35 86 85 
3 36 87 86 
3 37 88 87 
3 38 89 88 
3 39 90 89 
3 40 91 90 
3 41 92 91 
3 42 93 92 
3 43 94 93 
3 44 95 94 
3 45 96 95 
3 46 97 96 
3 47 98 97 
3 48 99 98 
3 49 100 99 
3 50 101 100 
