ply
format ascii 1.0
comment created by MATLAB ply_write
element vertex 153
property short x
property short y
property float z
element face 200
property list uchar uchar vertex_indices
end_header
-1000 -1000 1414.213562 
-960 -1000 1386.217876 
-920 -1000 1358.823020 
-880 -1000 1332.066064 
-840 -1000 1305.986217 
-800 -1000 1280.624847 
-760 -1000 1256.025477 
-720 -1000 1232.233744 
-680 -1000 1209.297317 
-640 -1000 1187.265766 
-600 -1000 1166.190379 
-560 -1000 1146.123903 
-520 -1000 1127.120224 
-480 -1000 1109.233970 
-440 -1000 1092.520023 
-400 -1000 1077.032961 
-360 -1000 1062.826420 
-320 -1000 1049.952380 
-280 -1000 1038.460399 
-240 -1000 1028.396811 
-200 -1000 1019.803903 
-160 -1000 1012.719112 
-120 -1000 1007.174265 
-80 -1000 1003.194896 
-40 -1000 1000.799680 
0 -1000 1000.000000 
40 -1000 1000.799680 
80 -1000 1003.194896 
120 -1000 1007.174265 
160 -1000 1012.719112 
200 -1000 1019.803903 
240 -1000 1028.396811 
280 -1000 1038.460399 
320 -1000 1049.952380 
360 -1000 1062.826420 
400 -1000 1077.032961 
440 -1000 1092.520023 
480 -1000 1109.233970 
520 -1000 1127.120224 
560 -1000 1146.123903 
600 -1000 1166.190379 
640 -1000 1187.265766 
680 -1000 1209.297317 
720 -1000 1232.233744 
760 -1000 1256.025477 
800 -1000 1280.624847 
840 -1000 1305.986217 
880 -1000 1332.066064 
920 -1000 1358.823020 
960 -1000 1386.217876 
1000 -1000 1414.213562 
-1000 0 1000.000000 
-960 0 960.000000 
-920 0 920.000000 
-880 0 880.000000 
-840 0 840.000000 
-800 0 800.000000 
-760 0 760.000000 
-720 0 720.000000 
-680 0 680.000000 
-640 0 640.000000 
-600 0 600.000000 
-560 0 560.000000 
-520 0 520.000000 
-480 0 480.000000 
-440 0 440.000000 
-400 0 400.000000 
-360 0 360.000000 
-320 0 320.000000 
-280 0 280.000000 
-240 0 240.000000 
-200 0 200.000000 
-160 0 160.000000 
-120 0 120.000000 
-80 0 80.000000 
-40 0 40.000000 
0 0 0.000000 
40 0 40.000000 
80 0 80.000000 
120 0 120.000000 
160 0 160.000000 
200 0 200.000000 
240 0 240.000000 
280 0 280.000000 
320 0 320.000000 
360 0 360.000000 
400 0 400.000000 
440 0 440.000000 
480 0 480.000000 
520 0 520.000000 
560 0 560.000000 
600 0 600.000000 
640 0 640.000000 
680 0 680.000000 
720 0 720.000000 
760 0 760.000000 
800 0 800.000000 
840 0 840.000000 
880 0 880.000000 
920 0 920.000000 
960 0 960.000000 
1000 0 1000.000000 
-1000 1000 1414.213562 
-960 1000 1386.217876 
-920 1000 1358.823020 
-880 1000 1332.066064 
-840 1000 1305.986217 
-800 1000 1280.624847 
-760 1000 1256.025477 
-720 1000 1232.233744 
-680 1000 1209.297317 
-640 1000 1187.265766 
-600 1000 1166.190379 
-560 1000 1146.123903 
-520 1000 1127.120224 
-480 1000 1109.233970 
-440 1000 1092.520023 
-400 1000 1077.032961 
-360 1000 1062.826420 
-320 1000 1049.952380 
-280 1000 1038.460399 
-240 1000 1028.396811 
-200 1000 1019.803903 
-160 1000 1012.719112 
-120 1000 1007.174265 
-80 1000 1003.194896 
-40 1000 1000.799680 
0 1000 1000.000000 
40 1000 1000.799680 
80 1000 1003.194896 
120 1000 1007.174265 
160 1000 1012.719112 
200 1000 1019.803903 
240 1000 1028.396811 
280 1000 1038.460399 
320 1000 1049.952380 
360 1000 1062.826420 
400 1000 1077.032961 
440 1000 1092.520023 
480 1000 1109.233970 
520 1000 1127.120224 
560 1000 1146.123903 
600 1000 1166.190379 
640 1000 1187.265766 
680 1000 1209.297317 
720 1000 1232.233744 
760 1000 1256.025477 
800 1000 1280.624847 
840 1000 1305.986217 
880 1000 1332.066064 
920 1000 1358.823020 
960 1000 1386.217876 
1000 1000 1414.213562 
3 0 1 51 
3 1 2 52 
3 2 3 53 
3 3 4 54 
3 4 5 55 
3 5 6 56 
3 6 7 57 
3 7 8 58 
3 8 9 59 
3 9 10 60 
3 10 11 61 
3 11 12 62 
3 12 13 63 
3 13 14 64 
3 14 15 65 
3 15 16 66 
3 16 17 67 
3 17 18 68 
3 18 19 69 
3 19 20 70 
3 20 21 71 
3 21 22 72 
3 22 23 73 
3 23 24 74 
3 24 25 75 
3 25 26 76 
3 26 27 77 
3 27 28 78 
3 28 29 79 
3 29 30 80 
3 30 31 81 
3 31 32 82 
3 32 33 83 
3 33 34 84 
3 34 35 85 
3 35 36 86 
3 36 37 87 
3 37 38 88 
3 38 39 89 
3 39 40 90 
3 40 41 91 
3 41 42 92 
3 42 43 93 
3 43 44 94 
3 44 45 95 
3 45 46 96 
3 46 47 97 
3 47 48 98 
3 48 49 99 
3 49 50 100 
3 51 52 102 
3 52 53 103 
3 53 54 104 
3 54 55 105 
3 55 56 106 
3 56 57 107 
3 57 58 108 
3 58 59 109 
3 59 60 110 
3 60 61 111 
3 61 62 112 
3 62 63 113 
3 63 64 114 
3 64 65 115 
3 65 66 116 
3 66 67 117 
3 67 68 118 
3 68 69 119 
3 69 70 120 
3 70 71 121 
3 71 72 122 
3 72 73 123 
3 73 74 124 
3 74 75 125 
3 75 76 126 
3 76 77 127 
3 77 78 128 
3 78 79 129 
3 79 80 130 
3 80 81 131 
3 81 82 132 
3 82 83 133 
3 83 84 134 
3 84 85 135 
3 85 86 136 
3 86 87 137 
3 87 88 138 
3 88 89 139 
3 89 90 140 
3 90 91 141 
3 91 92 142 
3 92 93 143 
3 93 94 144 
3 94 95 145 
3 95 96 146 
3 96 97 147 
3 97 98 148 
3 98 99 149 
3 99 100 150 
3 100 101 151 
3 1 52 51 
3 2 53 52 
3 3 54 53 
3 4 55 54 
3 5 56 55 
3 6 57 56 
3 7 58 57 
3 8 59 58 
3 9 60 59 
3 10 61 60 
3 11 62 61 
3 12 63 62 
3 13 64 63 
3 14 65 64 
3 15 66 65 
3 16 67 66 
3 17 68 67 
3 18 69 68 
3 19 70 69 
3 20 71 70 
3 21 72 71 
3 22 73 72 
3 23 74 73 
3 24 75 74 
3 25 76 75 
3 26 77 76 
3 27 78 77 
3 28 79 78 
3 29 80 79 
3 30 81 80 
3 31 82 81 
3 32 83 82 
3 33 84 83 
3 34 85 84 
3 35 86 85 
3 36 87 86 
3 37 88 87 
3 38 89 88 
3 39 90 89 
3 40 91 90 
3 41 92 91 
3 42 93 92 
3 43 94 93 
3 44 95 94 
3 45 96 95 
3 46 97 96 
3 47 98 97 
3 48 99 98 
3 49 100 99 
3 50 101 100 
3 52 103 102 
3 53 104 103 
3 54 105 104 
3 55 106 105 
3 56 107 106 
3 57 108 107 
3 58 109 108 
3 59 110 109 
3 60 111 110 
3 61 112 111 
3 62 113 112 
3 63 114 113 
3 64 115 114 
3 65 116 115 
3 66 117 116 
3 67 118 117 
3 68 119 118 
3 69 120 119 
3 70 121 120 
3 71 122 121 
3 72 123 122 
3 73 124 123 
3 74 125 124 
3 75 126 125 
3 76 127 126 
3 77 128 127 
3 78 129 128 
3 79 130 129 
3 80 131 130 
3 81 132 131 
3 82 133 132 
3 83 134 133 
3 84 135 134 
3 85 136 135 
3 86 137 136 
3 87 138 137 
3 88 139 138 
3 89 140 139 
3 90 141 140 
3 91 142 141 
3 92 143 142 
3 93 144 143 
3 94 145 144 
3 95 146 145 
3 96 147 146 
3 97 148 147 
3 98 149 148 
3 99 150 149 
3 100 151 150 
3 101 152 151 
