ply
format ascii 1.0
comment created by MATLAB ply_write
element vertex 204
property short x
property float y
property float z
element face 300
property list uchar uchar vertex_indices
end_header
-1000 -1000.000000 1414.213562 
-960 -1000.000000 1386.217876 
-920 -1000.000000 1358.823020 
-880 -1000.000000 1332.066064 
-840 -1000.000000 1305.986217 
-800 -1000.000000 1280.624847 
-760 -1000.000000 1256.025477 
-720 -1000.000000 1232.233744 
-680 -1000.000000 1209.297317 
-640 -1000.000000 1187.265766 
-600 -1000.000000 1166.190379 
-560 -1000.000000 1146.123903 
-520 -1000.000000 1127.120224 
-480 -1000.000000 1109.233970 
-440 -1000.000000 1092.520023 
-400 -1000.000000 1077.032961 
-360 -1000.000000 1062.826420 
-320 -1000.000000 1049.952380 
-280 -1000.000000 1038.460399 
-240 -1000.000000 1028.396811 
-200 -1000.000000 1019.803903 
-160 -1000.000000 1012.719112 
-120 -1000.000000 1007.174265 
-80 -1000.000000 1003.194896 
-40 -1000.000000 1000.799680 
0 -1000.000000 1000.000000 
40 -1000.000000 1000.799680 
80 -1000.000000 1003.194896 
120 -1000.000000 1007.174265 
160 -1000.000000 1012.719112 
200 -1000.000000 1019.803903 
240 -1000.000000 1028.396811 
280 -1000.000000 1038.460399 
320 -1000.000000 1049.952380 
360 -1000.000000 1062.826420 
400 -1000.000000 1077.032961 
440 -1000.000000 1092.520023 
480 -1000.000000 1109.233970 
520 -1000.000000 1127.120224 
560 -1000.000000 1146.123903 
600 -1000.000000 1166.190379 
640 -1000.000000 1187.265766 
680 -1000.000000 1209.297317 
720 -1000.000000 1232.233744 
760 -1000.000000 1256.025477 
800 -1000.000000 1280.624847 
840 -1000.000000 1305.986217 
880 -1000.000000 1332.066064 
920 -1000.000000 1358.823020 
960 -1000.000000 1386.217876 
1000 -1000.000000 1414.213562 
-1000 -333.333333 1054.092553 
-960 -333.333333 1016.223947 
-920 -333.333333 978.524967 
-880 -333.333333 941.015999 
-840 -333.333333 903.720704 
-800 -333.333333 866.666667 
-760 -333.333333 829.886204 
-720 -333.333333 793.417362 
-680 -333.333333 757.305164 
-640 -333.333333 721.603153 
-600 -333.333333 686.375343 
-560 -333.333333 651.698635 
-520 -333.333333 617.665857 
-480 -333.333333 584.389520 
-440 -333.333333 552.006441 
-400 -333.333333 520.683312 
-360 -333.333333 490.623186 
-320 -333.333333 462.072625 
-280 -333.333333 435.328739 
-240 -333.333333 410.744581 
-200 -333.333333 388.730126 
-160 -333.333333 369.744657 
-120 -333.333333 354.275473 
-80 -333.333333 342.798937 
-40 -333.333333 335.724755 
0 -333.333333 333.333333 
40 -333.333333 335.724755 
80 -333.333333 342.798937 
120 -333.333333 354.275473 
160 -333.333333 369.744657 
200 -333.333333 388.730126 
240 -333.333333 410.744581 
280 -333.333333 435.328739 
320 -333.333333 462.072625 
360 -333.333333 490.623186 
400 -333.333333 520.683312 
440 -333.333333 552.006441 
480 -333.333333 584.389520 
520 -333.333333 617.665857 
560 -333.333333 651.698635 
600 -333.333333 686.375343 
640 -333.333333 721.603153 
680 -333.333333 757.305164 
720 -333.333333 793.417362 
760 -333.333333 829.886204 
800 -333.333333 866.666667 
840 -333.333333 903.720704 
880 -333.333333 941.015999 
920 -333.333333 978.524967 
960 -333.333333 1016.223947 
1000 -333.333333 1054.092553 
-1000 333.333333 1054.092553 
-960 333.333333 1016.223947 
-920 333.333333 978.524967 
-880 333.333333 941.015999 
-840 333.333333 903.720704 
-800 333.333333 866.666667 
-760 333.333333 829.886204 
-720 333.333333 793.417362 
-680 333.333333 757.305164 
-640 333.333333 721.603153 
-600 333.333333 686.375343 
-560 333.333333 651.698635 
-520 333.333333 617.665857 
-480 333.333333 584.389520 
-440 333.333333 552.006441 
-400 333.333333 520.683312 
-360 333.333333 490.623186 
-320 333.333333 462.072625 
-280 333.333333 435.328739 
-240 333.333333 410.744581 
-200 333.333333 388.730126 
-160 333.333333 369.744657 
-120 333.333333 354.275473 
-80 333.333333 342.798937 
-40 333.333333 335.724755 
0 333.333333 333.333333 
40 333.333333 335.724755 
80 333.333333 342.798937 
120 333.333333 354.275473 
160 333.333333 369.744657 
200 333.333333 388.730126 
240 333.333333 410.744581 
280 333.333333 435.328739 
320 333.333333 462.072625 
360 333.333333 490.623186 
400 333.333333 520.683312 
440 333.333333 552.006441 
480 333.333333 584.389520 
520 333.333333 617.665857 
560 333.333333 651.698635 
600 333.333333 686.375343 
640 333.333333 721.603153 
680 333.333333 757.305164 
720 333.333333 793.417362 
760 333.333333 829.886204 
800 333.333333 866.666667 
840 333.333333 903.720704 
880 333.333333 941.015999 
920 333.333333 978.524967 
960 333.333333 1016.223947 
1000 333.333333 1054.092553 
-1000 1000.000000 1414.213562 
-960 1000.000000 1386.217876 
-920 1000.000000 1358.823020 
-880 1000.000000 1332.066064 
-840 1000.000000 1305.986217 
-800 1000.000000 1280.624847 
-760 1000.000000 1256.025477 
-720 1000.000000 1232.233744 
-680 1000.000000 1209.297317 
-640 1000.000000 1187.265766 
-600 1000.000000 1166.190379 
-560 1000.000000 1146.123903 
-520 1000.000000 1127.120224 
-480 1000.000000 1109.233970 
-440 1000.000000 1092.520023 
-400 1000.000000 1077.032961 
-360 1000.000000 1062.826420 
-320 1000.000000 1049.952380 
-280 1000.000000 1038.460399 
-240 1000.000000 1028.396811 
-200 1000.000000 1019.803903 
-160 1000.000000 1012.719112 
-120 1000.000000 1007.174265 
-80 1000.000000 1003.194896 
-40 1000.000000 1000.799680 
0 1000.000000 1000.000000 
40 1000.000000 1000.799680 
80 1000.000000 1003.194896 
120 1000.000000 1007.174265 
160 1000.000000 1012.719112 
200 1000.000000 1019.803903 
240 1000.000000 1028.396811 
280 1000.000000 1038.460399 
320 1000.000000 1049.952380 
360 1000.000000 1062.826420 
400 1000.000000 1077.032961 
440 1000.000000 1092.520023 
480 1000.000000 1109.233970 
520 1000.000000 1127.120224 
560 1000.000000 1146.123903 
600 1000.000000 1166.190379 
640 1000.000000 1187.265766 
680 1000.000000 1209.297317 
720 1000.000000 1232.233744 
760 1000.000000 1256.025477 
800 1000.000000 1280.624847 
840 1000.000000 1305.986217 
880 1000.000000 1332.066064 
920 1000.000000 1358.823020 
960 1000.000000 1386.217876 
1000 1000.000000 1414.213562 
3 0 1 51 
3 1 2 52 
3 2 3 53 
3 3 4 54 
3 4 5 55 
3 5 6 56 
3 6 7 57 
3 7 8 58 
3 8 9 59 
3 9 10 60 
3 10 11 61 
3 11 12 62 
3 12 13 63 
3 13 14 64 
3 14 15 65 
3 15 16 66 
3 16 17 67 
3 17 18 68 
3 18 19 69 
3 19 20 70 
3 20 21 71 
3 21 22 72 
3 22 23 73 
3 23 24 74 
3 24 25 75 
3 25 26 76 
3 26 27 77 
3 27 28 78 
3 28 29 79 
3 29 30 80 
3 30 31 81 
3 31 32 82 
3 32 33 83 
3 33 34 84 
3 34 35 85 
3 35 36 86 
3 36 37 87 
3 37 38 88 
3 38 39 89 
3 39 40 90 
3 40 41 91 
3 41 42 92 
3 42 43 93 
3 43 44 94 
3 44 45 95 
3 45 46 96 
3 46 47 97 
3 47 48 98 
3 48 49 99 
3 49 50 100 
3 51 52 102 
3 52 53 103 
3 53 54 104 
3 54 55 105 
3 55 56 106 
3 56 57 107 
3 57 58 108 
3 58 59 109 
3 59 60 110 
3 60 61 111 
3 61 62 112 
3 62 63 113 
3 63 64 114 
3 64 65 115 
3 65 66 116 
3 66 67 117 
3 67 68 118 
3 68 69 119 
3 69 70 120 
3 70 71 121 
3 71 72 122 
3 72 73 123 
3 73 74 124 
3 74 75 125 
3 75 76 126 
3 76 77 127 
3 77 78 128 
3 78 79 129 
3 79 80 130 
3 80 81 131 
3 81 82 132 
3 82 83 133 
3 83 84 134 
3 84 85 135 
3 85 86 136 
3 86 87 137 
3 87 88 138 
3 88 89 139 
3 89 90 140 
3 90 91 141 
3 91 92 142 
3 92 93 143 
3 93 94 144 
3 94 95 145 
3 95 96 146 
3 96 97 147 
3 97 98 148 
3 98 99 149 
3 99 100 150 
3 100 101 151 
3 102 103 153 
3 103 104 154 
3 104 105 155 
3 105 106 156 
3 106 107 157 
3 107 108 158 
3 108 109 159 
3 109 110 160 
3 110 111 161 
3 111 112 162 
3 112 113 163 
3 113 114 164 
3 114 115 165 
3 115 116 166 
3 116 117 167 
3 117 118 168 
3 118 119 169 
3 119 120 170 
3 120 121 171 
3 121 122 172 
3 122 123 173 
3 123 124 174 
3 124 125 175 
3 125 126 176 
3 126 127 177 
3 127 128 178 
3 128 129 179 
3 129 130 180 
3 130 131 181 
3 131 132 182 
3 132 133 183 
3 133 134 184 
3 134 135 185 
3 135 136 186 
3 136 137 187 
3 137 138 188 
3 138 139 189 
3 139 140 190 
3 140 141 191 
3 141 142 192 
3 142 143 193 
3 143 144 194 
3 144 145 195 
3 145 146 196 
3 146 147 197 
3 147 148 198 
3 148 149 199 
3 149 150 200 
3 150 151 201 
3 151 152 202 
3 1 52 51 
3 2 53 52 
3 3 54 53 
3 4 55 54 
3 5 56 55 
3 6 57 56 
3 7 58 57 
3 8 59 58 
3 9 60 59 
3 10 61 60 
3 11 62 61 
3 12 63 62 
3 13 64 63 
3 14 65 64 
3 15 66 65 
3 16 67 66 
3 17 68 67 
3 18 69 68 
3 19 70 69 
3 20 71 70 
3 21 72 71 
3 22 73 72 
3 23 74 73 
3 24 75 74 
3 25 76 75 
3 26 77 76 
3 27 78 77 
3 28 79 78 
3 29 80 79 
3 30 81 80 
3 31 82 81 
3 32 83 82 
3 33 84 83 
3 34 85 84 
3 35 86 85 
3 36 87 86 
3 37 88 87 
3 38 89 88 
3 39 90 89 
3 40 91 90 
3 41 92 91 
3 42 93 92 
3 43 94 93 
3 44 95 94 
3 45 96 95 
3 46 97 96 
3 47 98 97 
3 48 99 98 
3 49 100 99 
3 50 101 100 
3 52 103 102 
3 53 104 103 
3 54 105 104 
3 55 106 105 
3 56 107 106 
3 57 108 107 
3 58 109 108 
3 59 110 109 
3 60 111 110 
3 61 112 111 
3 62 113 112 
3 63 114 113 
3 64 115 114 
3 65 116 115 
3 66 117 116 
3 67 118 117 
3 68 119 118 
3 69 120 119 
3 70 121 120 
3 71 122 121 
3 72 123 122 
3 73 124 123 
3 74 125 124 
3 75 126 125 
3 76 127 126 
3 77 128 127 
3 78 129 128 
3 79 130 129 
3 80 131 130 
3 81 132 131 
3 82 133 132 
3 83 134 133 
3 84 135 134 
3 85 136 135 
3 86 137 136 
3 87 138 137 
3 88 139 138 
3 89 140 139 
3 90 141 140 
3 91 142 141 
3 92 143 142 
3 93 144 143 
3 94 145 144 
3 95 146 145 
3 96 147 146 
3 97 148 147 
3 98 149 148 
3 99 150 149 
3 100 151 150 
3 101 152 151 
3 103 154 153 
3 104 155 154 
3 105 156 155 
3 106 157 156 
3 107 158 157 
3 108 159 158 
3 109 160 159 
3 110 161 160 
3 111 162 161 
3 112 163 162 
3 113 164 163 
3 114 165 164 
3 115 166 165 
3 116 167 166 
3 117 168 167 
3 118 169 168 
3 119 170 169 
3 120 171 170 
3 121 172 171 
3 122 173 172 
3 123 174 173 
3 124 175 174 
3 125 176 175 
3 126 177 176 
3 127 178 177 
3 128 179 178 
3 129 180 179 
3 130 181 180 
3 131 182 181 
3 132 183 182 
3 133 184 183 
3 134 185 184 
3 135 186 185 
3 136 187 186 
3 137 188 187 
3 138 189 188 
3 139 190 189 
3 140 191 190 
3 141 192 191 
3 142 193 192 
3 143 194 193 
3 144 195 194 
3 145 196 195 
3 146 197 196 
3 147 198 197 
3 148 199 198 
3 149 200 199 
3 150 201 200 
3 151 202 201 
3 152 203 202 
