ply
format ascii 1.0
comment created by MATLAB ply_write
element vertex 306
property short x
property short y
property float z
element face 500
property list uchar short vertex_indices
end_header
-1000 -1000 1414.213562 
-960 -1000 1386.217876 
-920 -1000 1358.823020 
-880 -1000 1332.066064 
-840 -1000 1305.986217 
-800 -1000 1280.624847 
-760 -1000 1256.025477 
-720 -1000 1232.233744 
-680 -1000 1209.297317 
-640 -1000 1187.265766 
-600 -1000 1166.190379 
-560 -1000 1146.123903 
-520 -1000 1127.120224 
-480 -1000 1109.233970 
-440 -1000 1092.520023 
-400 -1000 1077.032961 
-360 -1000 1062.826420 
-320 -1000 1049.952380 
-280 -1000 1038.460399 
-240 -1000 1028.396811 
-200 -1000 1019.803903 
-160 -1000 1012.719112 
-120 -1000 1007.174265 
-80 -1000 1003.194896 
-40 -1000 1000.799680 
0 -1000 1000.000000 
40 -1000 1000.799680 
80 -1000 1003.194896 
120 -1000 1007.174265 
160 -1000 1012.719112 
200 -1000 1019.803903 
240 -1000 1028.396811 
280 -1000 1038.460399 
320 -1000 1049.952380 
360 -1000 1062.826420 
400 -1000 1077.032961 
440 -1000 1092.520023 
480 -1000 1109.233970 
520 -1000 1127.120224 
560 -1000 1146.123903 
600 -1000 1166.190379 
640 -1000 1187.265766 
680 -1000 1209.297317 
720 -1000 1232.233744 
760 -1000 1256.025477 
800 -1000 1280.624847 
840 -1000 1305.986217 
880 -1000 1332.066064 
920 -1000 1358.823020 
960 -1000 1386.217876 
1000 -1000 1414.213562 
-1000 -600 1166.190379 
-960 -600 1132.077736 
-920 -600 1098.362417 
-880 -600 1065.082156 
-840 -600 1032.279032 
-800 -600 1000.000000 
-760 -600 968.297475 
-720 -600 937.229961 
-680 -600 906.862724 
-640 -600 877.268488 
-600 -600 848.528137 
-560 -600 820.731381 
-520 -600 793.977330 
-480 -600 768.374908 
-440 -600 744.043010 
-400 -600 721.110255 
-360 -600 699.714227 
-320 -600 680.000000 
-280 -600 662.117814 
-240 -600 646.219777 
-200 -600 632.455532 
-160 -600 620.966988 
-120 -600 611.882342 
-80 -600 605.309838 
-40 -600 601.331855 
0 -600 600.000000 
40 -600 601.331855 
80 -600 605.309838 
120 -600 611.882342 
160 -600 620.966988 
200 -600 632.455532 
240 -600 646.219777 
280 -600 662.117814 
320 -600 680.000000 
360 -600 699.714227 
400 -600 721.110255 
440 -600 744.043010 
480 -600 768.374908 
520 -600 793.977330 
560 -600 820.731381 
600 -600 848.528137 
640 -600 877.268488 
680 -600 906.862724 
720 -600 937.229961 
760 -600 968.297475 
800 -600 1000.000000 
840 -600 1032.279032 
880 -600 1065.082156 
920 -600 1098.362417 
960 -600 1132.077736 
1000 -600 1166.190379 
-1000 -200 1019.803903 
-960 -200 980.612054 
-920 -200 941.488184 
-880 -200 902.441134 
-840 -200 863.481326 
-800 -200 824.621125 
-760 -200 785.875308 
-720 -200 747.261668 
-680 -200 708.801806 
-640 -200 670.522185 
-600 -200 632.455532 
-560 -200 594.642750 
-520 -200 557.135531 
-480 -200 520.000000 
-440 -200 483.321839 
-400 -200 447.213595 
-360 -200 411.825206 
-320 -200 377.359245 
-280 -200 344.093011 
-240 -200 312.409987 
-200 -200 282.842712 
-160 -200 256.124969 
-120 -200 233.238076 
-80 -200 215.406592 
-40 -200 203.960781 
0 -200 200.000000 
40 -200 203.960781 
80 -200 215.406592 
120 -200 233.238076 
160 -200 256.124969 
200 -200 282.842712 
240 -200 312.409987 
280 -200 344.093011 
320 -200 377.359245 
360 -200 411.825206 
400 -200 447.213595 
440 -200 483.321839 
480 -200 520.000000 
520 -200 557.135531 
560 -200 594.642750 
600 -200 632.455532 
640 -200 670.522185 
680 -200 708.801806 
720 -200 747.261668 
760 -200 785.875308 
800 -200 824.621125 
840 -200 863.481326 
880 -200 902.441134 
920 -200 941.488184 
960 -200 980.612054 
1000 -200 1019.803903 
-1000 200 1019.803903 
-960 200 980.612054 
-920 200 941.488184 
-880 200 902.441134 
-840 200 863.481326 
-800 200 824.621125 
-760 200 785.875308 
-720 200 747.261668 
-680 200 708.801806 
-640 200 670.522185 
-600 200 632.455532 
-560 200 594.642750 
-520 200 557.135531 
-480 200 520.000000 
-440 200 483.321839 
-400 200 447.213595 
-360 200 411.825206 
-320 200 377.359245 
-280 200 344.093011 
-240 200 312.409987 
-200 200 282.842712 
-160 200 256.124969 
-120 200 233.238076 
-80 200 215.406592 
-40 200 203.960781 
0 200 200.000000 
40 200 203.960781 
80 200 215.406592 
120 200 233.238076 
160 200 256.124969 
200 200 282.842712 
240 200 312.409987 
280 200 344.093011 
320 200 377.359245 
360 200 411.825206 
400 200 447.213595 
440 200 483.321839 
480 200 520.000000 
520 200 557.135531 
560 200 594.642750 
600 200 632.455532 
640 200 670.522185 
680 200 708.801806 
720 200 747.261668 
760 200 785.875308 
800 200 824.621125 
840 200 863.481326 
880 200 902.441134 
920 200 941.488184 
960 200 980.612054 
1000 200 1019.803903 
-1000 600 1166.190379 
-960 600 1132.077736 
-920 600 1098.362417 
-880 600 1065.082156 
-840 600 1032.279032 
-800 600 1000.000000 
-760 600 968.297475 
-720 600 937.229961 
-680 600 906.862724 
-640 600 877.268488 
-600 600 848.528137 
-560 600 820.731381 
-520 600 793.977330 
-480 600 768.374908 
-440 600 744.043010 
-400 600 721.110255 
-360 600 699.714227 
-320 600 680.000000 
-280 600 662.117814 
-240 600 646.219777 
-200 600 632.455532 
-160 600 620.966988 
-120 600 611.882342 
-80 600 605.309838 
-40 600 601.331855 
0 600 600.000000 
40 600 601.331855 
80 600 605.309838 
120 600 611.882342 
160 600 620.966988 
200 600 632.455532 
240 600 646.219777 
280 600 662.117814 
320 600 680.000000 
360 600 699.714227 
400 600 721.110255 
440 600 744.043010 
480 600 768.374908 
520 600 793.977330 
560 600 820.731381 
600 600 848.528137 
640 600 877.268488 
680 600 906.862724 
720 600 937.229961 
760 600 968.297475 
800 600 1000.000000 
840 600 1032.279032 
880 600 1065.082156 
920 600 1098.362417 
960 600 1132.077736 
1000 600 1166.190379 
-1000 1000 1414.213562 
-960 1000 1386.217876 
-920 1000 1358.823020 
-880 1000 1332.066064 
-840 1000 1305.986217 
-800 1000 1280.624847 
-760 1000 1256.025477 
-720 1000 1232.233744 
-680 1000 1209.297317 
-640 1000 1187.265766 
-600 1000 1166.190379 
-560 1000 1146.123903 
-520 1000 1127.120224 
-480 1000 1109.233970 
-440 1000 1092.520023 
-400 1000 1077.032961 
-360 1000 1062.826420 
-320 1000 1049.952380 
-280 1000 1038.460399 
-240 1000 1028.396811 
-200 1000 1019.803903 
-160 1000 1012.719112 
-120 1000 1007.174265 
-80 1000 1003.194896 
-40 1000 1000.799680 
0 1000 1000.000000 
40 1000 1000.799680 
80 1000 1003.194896 
120 1000 1007.174265 
160 1000 1012.719112 
200 1000 1019.803903 
240 1000 1028.396811 
280 1000 1038.460399 
320 1000 1049.952380 
360 1000 1062.826420 
400 1000 1077.032961 
440 1000 1092.520023 
480 1000 1109.233970 
520 1000 1127.120224 
560 1000 1146.123903 
600 1000 1166.190379 
640 1000 1187.265766 
680 1000 1209.297317 
720 1000 1232.233744 
760 1000 1256.025477 
800 1000 1280.624847 
840 1000 1305.986217 
880 1000 1332.066064 
920 1000 1358.823020 
960 1000 1386.217876 
1000 1000 1414.213562 
3 0 1 51 
3 1 2 52 
3 2 3 53 
3 3 4 54 
3 4 5 55 
3 5 6 56 
3 6 7 57 
3 7 8 58 
3 8 9 59 
3 9 10 60 
3 10 11 61 
3 11 12 62 
3 12 13 63 
3 13 14 64 
3 14 15 65 
3 15 16 66 
3 16 17 67 
3 17 18 68 
3 18 19 69 
3 19 20 70 
3 20 21 71 
3 21 22 72 
3 22 23 73 
3 23 24 74 
3 24 25 75 
3 25 26 76 
3 26 27 77 
3 27 28 78 
3 28 29 79 
3 29 30 80 
3 30 31 81 
3 31 32 82 
3 32 33 83 
3 33 34 84 
3 34 35 85 
3 35 36 86 
3 36 37 87 
3 37 38 88 
3 38 39 89 
3 39 40 90 
3 40 41 91 
3 41 42 92 
3 42 43 93 
3 43 44 94 
3 44 45 95 
3 45 46 96 
3 46 47 97 
3 47 48 98 
3 48 49 99 
3 49 50 100 
3 51 52 102 
3 52 53 103 
3 53 54 104 
3 54 55 105 
3 55 56 106 
3 56 57 107 
3 57 58 108 
3 58 59 109 
3 59 60 110 
3 60 61 111 
3 61 62 112 
3 62 63 113 
3 63 64 114 
3 64 65 115 
3 65 66 116 
3 66 67 117 
3 67 68 118 
3 68 69 119 
3 69 70 120 
3 70 71 121 
3 71 72 122 
3 72 73 123 
3 73 74 124 
3 74 75 125 
3 75 76 126 
3 76 77 127 
3 77 78 128 
3 78 79 129 
3 79 80 130 
3 80 81 131 
3 81 82 132 
3 82 83 133 
3 83 84 134 
3 84 85 135 
3 85 86 136 
3 86 87 137 
3 87 88 138 
3 88 89 139 
3 89 90 140 
3 90 91 141 
3 91 92 142 
3 92 93 143 
3 93 94 144 
3 94 95 145 
3 95 96 146 
3 96 97 147 
3 97 98 148 
3 98 99 149 
3 99 100 150 
3 100 101 151 
3 102 103 153 
3 103 104 154 
3 104 105 155 
3 105 106 156 
3 106 107 157 
3 107 108 158 
3 108 109 159 
3 109 110 160 
3 110 111 161 
3 111 112 162 
3 112 113 163 
3 113 114 164 
3 114 115 165 
3 115 116 166 
3 116 117 167 
3 117 118 168 
3 118 119 169 
3 119 120 170 
3 120 121 171 
3 121 122 172 
3 122 123 173 
3 123 124 174 
3 124 125 175 
3 125 126 176 
3 126 127 177 
3 127 128 178 
3 128 129 179 
3 129 130 180 
3 130 131 181 
3 131 132 182 
3 132 133 183 
3 133 134 184 
3 134 135 185 
3 135 136 186 
3 136 137 187 
3 137 138 188 
3 138 139 189 
3 139 140 190 
3 140 141 191 
3 141 142 192 
3 142 143 193 
3 143 144 194 
3 144 145 195 
3 145 146 196 
3 146 147 197 
3 147 148 198 
3 148 149 199 
3 149 150 200 
3 150 151 201 
3 151 152 202 
3 153 154 204 
3 154 155 205 
3 155 156 206 
3 156 157 207 
3 157 158 208 
3 158 159 209 
3 159 160 210 
3 160 161 211 
3 161 162 212 
3 162 163 213 
3 163 164 214 
3 164 165 215 
3 165 166 216 
3 166 167 217 
3 167 168 218 
3 168 169 219 
3 169 170 220 
3 170 171 221 
3 171 172 222 
3 172 173 223 
3 173 174 224 
3 174 175 225 
3 175 176 226 
3 176 177 227 
3 177 178 228 
3 178 179 229 
3 179 180 230 
3 180 181 231 
3 181 182 232 
3 182 183 233 
3 183 184 234 
3 184 185 235 
3 185 186 236 
3 186 187 237 
3 187 188 238 
3 188 189 239 
3 189 190 240 
3 190 191 241 
3 191 192 242 
3 192 193 243 
3 193 194 244 
3 194 195 245 
3 195 196 246 
3 196 197 247 
3 197 198 248 
3 198 199 249 
3 199 200 250 
3 200 201 251 
3 201 202 252 
3 202 203 253 
3 204 205 255 
3 205 206 256 
3 206 207 257 
3 207 208 258 
3 208 209 259 
3 209 210 260 
3 210 211 261 
3 211 212 262 
3 212 213 263 
3 213 214 264 
3 214 215 265 
3 215 216 266 
3 216 217 267 
3 217 218 268 
3 218 219 269 
3 219 220 270 
3 220 221 271 
3 221 222 272 
3 222 223 273 
3 223 224 274 
3 224 225 275 
3 225 226 276 
3 226 227 277 
3 227 228 278 
3 228 229 279 
3 229 230 280 
3 230 231 281 
3 231 232 282 
3 232 233 283 
3 233 234 284 
3 234 235 285 
3 235 236 286 
3 236 237 287 
3 237 238 288 
3 238 239 289 
3 239 240 290 
3 240 241 291 
3 241 242 292 
3 242 243 293 
3 243 244 294 
3 244 245 295 
3 245 246 296 
3 246 247 297 
3 247 248 298 
3 248 249 299 
3 249 250 300 
3 250 251 301 
3 251 252 302 
3 252 253 303 
3 253 254 304 
3 1 52 51 
3 2 53 52 
3 3 54 53 
3 4 55 54 
3 5 56 55 
3 6 57 56 
3 7 58 57 
3 8 59 58 
3 9 60 59 
3 10 61 60 
3 11 62 61 
3 12 63 62 
3 13 64 63 
3 14 65 64 
3 15 66 65 
3 16 67 66 
3 17 68 67 
3 18 69 68 
3 19 70 69 
3 20 71 70 
3 21 72 71 
3 22 73 72 
3 23 74 73 
3 24 75 74 
3 25 76 75 
3 26 77 76 
3 27 78 77 
3 28 79 78 
3 29 80 79 
3 30 81 80 
3 31 82 81 
3 32 83 82 
3 33 84 83 
3 34 85 84 
3 35 86 85 
3 36 87 86 
3 37 88 87 
3 38 89 88 
3 39 90 89 
3 40 91 90 
3 41 92 91 
3 42 93 92 
3 43 94 93 
3 44 95 94 
3 45 96 95 
3 46 97 96 
3 47 98 97 
3 48 99 98 
3 49 100 99 
3 50 101 100 
3 52 103 102 
3 53 104 103 
3 54 105 104 
3 55 106 105 
3 56 107 106 
3 57 108 107 
3 58 109 108 
3 59 110 109 
3 60 111 110 
3 61 112 111 
3 62 113 112 
3 63 114 113 
3 64 115 114 
3 65 116 115 
3 66 117 116 
3 67 118 117 
3 68 119 118 
3 69 120 119 
3 70 121 120 
3 71 122 121 
3 72 123 122 
3 73 124 123 
3 74 125 124 
3 75 126 125 
3 76 127 126 
3 77 128 127 
3 78 129 128 
3 79 130 129 
3 80 131 130 
3 81 132 131 
3 82 133 132 
3 83 134 133 
3 84 135 134 
3 85 136 135 
3 86 137 136 
3 87 138 137 
3 88 139 138 
3 89 140 139 
3 90 141 140 
3 91 142 141 
3 92 143 142 
3 93 144 143 
3 94 145 144 
3 95 146 145 
3 96 147 146 
3 97 148 147 
3 98 149 148 
3 99 150 149 
3 100 151 150 
3 101 152 151 
3 103 154 153 
3 104 155 154 
3 105 156 155 
3 106 157 156 
3 107 158 157 
3 108 159 158 
3 109 160 159 
3 110 161 160 
3 111 162 161 
3 112 163 162 
3 113 164 163 
3 114 165 164 
3 115 166 165 
3 116 167 166 
3 117 168 167 
3 118 169 168 
3 119 170 169 
3 120 171 170 
3 121 172 171 
3 122 173 172 
3 123 174 173 
3 124 175 174 
3 125 176 175 
3 126 177 176 
3 127 178 177 
3 128 179 178 
3 129 180 179 
3 130 181 180 
3 131 182 181 
3 132 183 182 
3 133 184 183 
3 134 185 184 
3 135 186 185 
3 136 187 186 
3 137 188 187 
3 138 189 188 
3 139 190 189 
3 140 191 190 
3 141 192 191 
3 142 193 192 
3 143 194 193 
3 144 195 194 
3 145 196 195 
3 146 197 196 
3 147 198 197 
3 148 199 198 
3 149 200 199 
3 150 201 200 
3 151 202 201 
3 152 203 202 
3 154 205 204 
3 155 206 205 
3 156 207 206 
3 157 208 207 
3 158 209 208 
3 159 210 209 
3 160 211 210 
3 161 212 211 
3 162 213 212 
3 163 214 213 
3 164 215 214 
3 165 216 215 
3 166 217 216 
3 167 218 217 
3 168 219 218 
3 169 220 219 
3 170 221 220 
3 171 222 221 
3 172 223 222 
3 173 224 223 
3 174 225 224 
3 175 226 225 
3 176 227 226 
3 177 228 227 
3 178 229 228 
3 179 230 229 
3 180 231 230 
3 181 232 231 
3 182 233 232 
3 183 234 233 
3 184 235 234 
3 185 236 235 
3 186 237 236 
3 187 238 237 
3 188 239 238 
3 189 240 239 
3 190 241 240 
3 191 242 241 
3 192 243 242 
3 193 244 243 
3 194 245 244 
3 195 246 245 
3 196 247 246 
3 197 248 247 
3 198 249 248 
3 199 250 249 
3 200 251 250 
3 201 252 251 
3 202 253 252 
3 203 254 253 
3 205 256 255 
3 206 257 256 
3 207 258 257 
3 208 259 258 
3 209 260 259 
3 210 261 260 
3 211 262 261 
3 212 263 262 
3 213 264 263 
3 214 265 264 
3 215 266 265 
3 216 267 266 
3 217 268 267 
3 218 269 268 
3 219 270 269 
3 220 271 270 
3 221 272 271 
3 222 273 272 
3 223 274 273 
3 224 275 274 
3 225 276 275 
3 226 277 276 
3 227 278 277 
3 228 279 278 
3 229 280 279 
3 230 281 280 
3 231 282 281 
3 232 283 282 
3 233 284 283 
3 234 285 284 
3 235 286 285 
3 236 287 286 
3 237 288 287 
3 238 289 288 
3 239 290 289 
3 240 291 290 
3 241 292 291 
3 242 293 292 
3 243 294 293 
3 244 295 294 
3 245 296 295 
3 246 297 296 
3 247 298 297 
3 248 299 298 
3 249 300 299 
3 250 301 300 
3 251 302 301 
3 252 303 302 
3 253 304 303 
3 254 305 304 
