ply
format ascii 1.0
comment VCGLIB generated
element vertex 268
property float x
property float y
property float z
element face 330
property list uchar int vertex_indices
end_header
1547.03 1626.15 -2.84217e-013 
1389.55 1626.15 -2.84217e-013 
1547.03 1487.34 -2.84217e-013 
1715.36 1620.78 -9.37251e-023 
1547.03 1626.15 -2.84217e-013 
1547.03 1487.34 -2.84217e-013 
1547.03 1752.79 -2.84217e-013 
1389.55 1487.34 -2.84217e-013 
1715.36 1747.42 -9.37251e-023 
1547.03 1626.15 -2.84217e-013 
1715.36 1620.78 -9.37251e-023 
1715.36 1620.78 -9.37251e-023 
1547.03 1487.34 -2.84217e-013 
1715.36 1481.96 -9.37251e-023 
1715.36 1747.42 -9.37251e-023 
1547.03 1752.79 -2.84217e-013 
1547.03 1626.15 -2.84217e-013 
1389.55 1752.79 -2.84217e-013 
1215.69 1487.34 -2.84217e-013 
1389.55 1340.36 -2.84217e-013 
1873.93 1747.42 -9.37251e-023 
1715.36 1747.42 -9.37251e-023 
1715.36 1620.78 -9.37251e-023 
1715.36 1481.96 -9.37251e-023 
1547.03 1487.34 -2.84217e-013 
1715.36 1334.99 -9.37251e-023 
1873.93 1481.96 -9.37251e-023 
1715.36 1481.96 -9.37251e-023 
1715.36 1892.22 -9.37251e-023 
1547.03 1752.79 -2.84217e-013 
1715.36 1747.42 -9.37251e-023 
1389.55 1897.59 -2.84217e-013 
1215.69 1752.79 -2.84217e-013 
1215.69 1626.15 -2.84217e-013 
1547.03 1340.36 -2.84217e-013 
1715.36 1892.22 -9.37251e-023 
1873.93 1620.78 -9.37251e-023 
1715.36 1334.99 -9.37251e-023 
1547.03 1487.34 -2.84217e-013 
1547.03 1340.36 -2.84217e-013 
1715.36 1334.99 -9.37251e-023 
1715.36 1892.22 -9.37251e-023 
1547.03 1897.59 -2.84217e-013 
1547.03 1897.59 -2.84217e-013 
1215.69 1340.36 -2.84217e-013 
1063.4 1626.15 -2.84217e-013 
1547.03 1201.32 -2.84217e-013 
1873.93 1892.22 -9.37251e-023 
2032.77 1620.78 -9.37251e-023 
1715.36 1334.99 -9.37251e-023 
1547.03 1340.36 -2.84217e-013 
1547.03 1201.32 -2.84217e-013 
1873.93 1334.99 -9.37251e-023 
1215.69 1897.59 -2.84217e-013 
1063.4 1340.36 -2.84217e-013 
1215.69 1201.32 -2.84217e-013 
1063.4 1487.34 -2.84217e-013 
1389.55 1201.32 -2.84217e-013 
2032.77 1892.22 -9.37251e-023 
2032.77 1747.42 -9.37251e-023 
1715.36 1334.99 -9.37251e-023 
1547.03 1201.32 -2.84217e-013 
1715.36 1195.94 -9.37251e-023 
1873.93 1195.94 -9.37251e-023 
2032.77 1334.99 -9.37251e-023 
2032.77 1481.96 -9.37251e-023 
1063.4 1897.59 -2.84217e-013 
1063.4 1752.79 -2.84217e-013 
918.001 1487.34 -2.84217e-013 
1547.03 1201.32 -2.84217e-013 
1389.55 1201.32 -2.84217e-013 
1393.53 1026.87 -9.37251e-023 
2208.6 1747.42 -9.37251e-023 
1715.36 1195.94 -9.37251e-023 
1715.36 1195.94 -9.37251e-023 
1547.03 1201.32 -2.84217e-013 
1551.01 1026.87 -9.37251e-023 
2208.6 1481.96 -9.37251e-023 
918.001 1752.79 -2.84217e-013 
1063.4 1201.32 -2.84217e-013 
1389.55 1201.32 -2.84217e-013 
1215.69 1201.32 -2.84217e-013 
1219.68 1026.87 -9.37251e-023 
918.001 1626.15 -2.84217e-013 
1551.01 1026.87 -9.37251e-023 
1547.03 1201.32 -2.84217e-013 
1393.53 1026.87 -9.37251e-023 
1393.53 1026.87 -9.37251e-023 
1389.55 1201.32 -2.84217e-013 
1219.68 1026.87 -9.37251e-023 
2208.6 1620.78 -9.37251e-023 
1727.17 1029.62 -9.37251e-023 
1551.01 1026.87 -9.37251e-023 
2032.77 1195.94 -9.37251e-023 
918.001 1201.32 -2.84217e-013 
1215.69 1201.32 -2.84217e-013 
1063.4 1201.32 -2.84217e-013 
1067.38 1026.87 -9.37251e-023 
918.001 1340.36 -2.84217e-013 
1219.68 1026.87 -9.37251e-023 
1215.69 1201.32 -2.84217e-013 
1067.38 1026.87 -9.37251e-023 
742.176 1626.15 -2.84217e-013 
1393.53 1026.87 -9.37251e-023 
1551.01 882.069 -9.37251e-023 
1219.68 1026.87 -9.37251e-023 
1219.68 882.069 -9.37251e-023 
2208.6 1892.22 -9.37251e-023 
2353.99 1620.78 -9.37251e-023 
1885.74 1029.62 -9.37251e-023 
1727.17 884.825 -9.37251e-023 
2208.6 1195.94 -9.37251e-023 
2208.6 1334.99 -9.37251e-023 
918.001 1897.59 -2.84217e-013 
1063.4 1201.32 -2.84217e-013 
918.001 1201.32 -2.84217e-013 
921.984 1026.87 -9.37251e-023 
1067.38 1026.87 -9.37251e-023 
1063.4 1201.32 -2.84217e-013 
921.984 1026.87 -9.37251e-023 
742.176 1340.36 -2.84217e-013 
1067.38 1026.87 -9.37251e-023 
742.176 1487.34 -2.84217e-013 
1393.53 882.069 -9.37251e-023 
2353.99 1892.22 -9.37251e-023 
2353.99 1747.42 -9.37251e-023 
1885.74 884.825 -9.37251e-023 
2044.58 1029.62 -9.37251e-023 
2353.99 1334.99 -9.37251e-023 
2353.99 1481.96 -9.37251e-023 
742.176 1897.59 -2.84217e-013 
742.176 1752.79 -2.84217e-013 
921.984 1026.87 -9.37251e-023 
918.001 1201.32 -2.84217e-013 
742.176 1201.32 -2.84217e-013 
921.984 1026.87 -9.37251e-023 
921.984 882.069 -9.37251e-023 
1067.38 882.069 -9.37251e-023 
583.33 1487.34 -2.84217e-013 
1551.01 755.421 -9.37251e-023 
1393.53 755.421 -9.37251e-023 
2506.29 1747.42 -9.37251e-023 
1727.17 758.177 -9.37251e-023 
2220.41 1029.62 -9.37251e-023 
2506.29 1481.96 -9.37251e-023 
583.33 1752.79 -2.84217e-013 
742.176 1201.32 -2.84217e-013 
742.176 1201.32 -2.84217e-013 
746.159 1026.87 -9.37251e-023 
746.159 1026.87 -9.37251e-023 
1067.38 755.421 -9.37251e-023 
583.33 1626.15 -2.84217e-013 
1219.68 755.421 -9.37251e-023 
2506.29 1620.78 -9.37251e-023 
2044.58 884.825 -9.37251e-023 
1885.74 758.177 -9.37251e-023 
2353.99 1195.94 -9.37251e-023 
2220.41 884.825 -9.37251e-023 
583.33 1201.32 -2.84217e-013 
746.159 1026.87 -9.37251e-023 
742.176 1201.32 -2.84217e-013 
587.313 1026.87 -9.37251e-023 
746.159 882.069 -9.37251e-023 
583.33 1340.36 -2.84217e-013 
424.766 1626.15 -2.84217e-013 
1551.01 616.611 -9.37251e-023 
1219.68 616.611 -9.37251e-023 
2506.29 1892.22 -9.37251e-023 
2680.15 1620.78 -9.37251e-023 
2044.58 758.177 -9.37251e-023 
1885.74 619.366 -9.37251e-023 
2365.8 1029.62 -9.37251e-023 
2506.29 1195.94 -9.37251e-023 
2506.29 1334.99 -9.37251e-023 
583.33 1897.59 -2.84217e-013 
742.176 1201.32 -2.84217e-013 
583.33 1201.32 -2.84217e-013 
587.313 1026.87 -9.37251e-023 
587.313 1026.87 -9.37251e-023 
587.313 882.069 -9.37251e-023 
746.159 755.421 -9.37251e-023 
921.984 755.421 -9.37251e-023 
424.766 1340.36 -2.84217e-013 
424.766 1487.34 -2.84217e-013 
1727.17 619.366 -9.37251e-023 
1393.53 616.611 -9.37251e-023 
2680.15 1892.22 -9.37251e-023 
2680.15 1747.42 -9.37251e-023 
2365.8 884.825 -9.37251e-023 
2680.15 1334.99 -9.37251e-023 
2680.15 1481.96 -9.37251e-023 
424.766 1897.59 -2.84217e-013 
424.766 1752.79 -2.84217e-013 
587.313 1026.87 -9.37251e-023 
583.33 1201.32 -2.84217e-013 
428.749 1026.87 -9.37251e-023 
428.749 1026.87 -9.37251e-023 
921.984 616.611 -9.37251e-023 
1067.38 616.611 -9.37251e-023 
1551.01 469.636 -9.37251e-023 
1393.53 469.636 -9.37251e-023 
2837.63 1747.42 -9.37251e-023 
2220.41 758.177 -9.37251e-023 
2044.58 619.366 -9.37251e-023 
1727.17 472.392 -9.37251e-023 
2518.1 1029.62 -9.37251e-023 
2365.8 758.177 -9.37251e-023 
2518.1 884.825 -9.37251e-023 
2837.63 1481.96 -9.37251e-023 
583.33 1201.32 -2.84217e-013 
424.766 1201.32 -2.84217e-013 
428.749 1026.87 -9.37251e-023 
424.766 1201.32 -2.84217e-013 
428.749 882.069 -9.37251e-023 
587.313 755.421 -9.37251e-023 
1067.38 469.636 -9.37251e-023 
1219.68 469.636 -9.37251e-023 
2837.63 1620.78 -9.37251e-023 
2220.41 619.366 -9.37251e-023 
2044.58 472.392 -9.37251e-023 
1885.74 472.392 -9.37251e-023 
2680.15 1195.94 -9.37251e-023 
428.749 755.421 -9.37251e-023 
587.313 616.611 -9.37251e-023 
746.159 616.611 -9.37251e-023 
1551.01 330.59 -9.37251e-023 
1219.68 330.59 -9.37251e-023 
2837.63 1892.22 -9.37251e-023 
1885.74 333.346 -9.37251e-023 
2691.96 1029.62 -9.37251e-023 
2518.1 758.177 -9.37251e-023 
2837.63 1195.94 -9.37251e-023 
2837.63 1334.99 -9.37251e-023 
746.159 469.636 -9.37251e-023 
921.984 469.636 -9.37251e-023 
1727.17 333.346 -9.37251e-023 
1393.53 330.59 -9.37251e-023 
2365.8 619.366 -9.37251e-023 
2220.41 472.392 -9.37251e-023 
2691.96 884.825 -9.37251e-023 
2518.1 619.366 -9.37251e-023 
2691.96 758.177 -9.37251e-023 
428.749 616.611 -9.37251e-023 
921.984 330.59 -9.37251e-023 
1067.38 330.59 -9.37251e-023 
2365.8 472.392 -9.37251e-023 
2220.41 333.346 -9.37251e-023 
2044.58 333.346 -9.37251e-023 
2849.44 1029.62 -9.37251e-023 
2849.44 884.825 -9.37251e-023 
428.749 469.636 -9.37251e-023 
587.313 469.636 -9.37251e-023 
2691.96 619.366 -9.37251e-023 
587.313 330.59 -9.37251e-023 
746.159 330.59 -9.37251e-023 
2518.1 472.392 -9.37251e-023 
2365.8 333.346 -9.37251e-023 
2849.44 758.177 -9.37251e-023 
2691.96 472.392 -9.37251e-023 
2849.44 619.366 -9.37251e-023 
2518.1 333.346 -9.37251e-023 
428.749 330.59 -9.37251e-023 
2849.44 472.392 -9.37251e-023 
2691.96 333.346 -9.37251e-023 
2849.44 333.346 -9.37251e-023 
73333.9 -30206.7 0 
73333.9 0 0 
0 -30206.7 0 
3 0 1 2 
3 3 4 5 
3 6 1 0 
3 2 1 7 
3 8 9 10 
3 11 12 13 
3 14 15 16 
3 6 17 1 
3 1 18 7 
3 2 7 19 
3 20 21 22 
3 23 24 25 
3 26 22 27 
3 28 29 30 
3 6 31 17 
3 17 32 1 
3 7 18 19 
3 1 33 18 
3 2 19 34 
3 20 35 21 
3 20 22 36 
3 37 38 39 
3 26 27 40 
3 36 22 26 
3 41 42 15 
3 31 32 17 
3 43 31 6 
3 1 32 33 
3 19 18 44 
3 33 45 18 
3 34 19 46 
3 47 35 20 
3 48 20 36 
3 49 50 51 
3 26 40 52 
3 48 36 26 
3 31 53 32 
3 32 45 33 
3 18 54 44 
3 19 44 55 
3 18 45 56 
3 46 19 57 
3 58 47 20 
3 59 20 48 
3 60 61 62 
3 52 40 63 
3 64 26 52 
3 48 26 65 
3 53 66 32 
3 32 67 45 
3 44 54 55 
3 18 56 54 
3 19 55 57 
3 45 68 56 
3 69 70 71 
3 58 20 59 
3 72 59 48 
3 63 40 73 
3 74 75 76 
3 64 52 63 
3 65 26 64 
3 77 48 65 
3 32 66 67 
3 67 78 45 
3 55 54 79 
3 56 68 54 
3 80 81 82 
3 45 83 68 
3 84 85 86 
3 87 88 89 
3 72 58 59 
3 72 48 90 
3 63 73 91 
3 91 73 92 
3 64 63 93 
3 77 65 64 
3 90 48 77 
3 66 78 67 
3 45 78 83 
3 54 94 79 
3 95 96 97 
3 54 68 98 
3 99 100 101 
3 83 102 68 
3 92 103 104 
3 103 105 106 
3 107 58 72 
3 108 72 90 
3 109 63 91 
3 91 92 110 
3 93 63 109 
3 111 64 93 
3 77 64 112 
3 108 90 77 
3 66 113 78 
3 78 102 83 
3 114 115 116 
3 54 98 94 
3 117 118 119 
3 68 120 98 
3 105 121 106 
3 68 102 122 
3 110 92 104 
3 104 103 123 
3 103 106 123 
3 124 107 72 
3 125 72 108 
3 109 91 126 
3 126 91 110 
3 127 93 109 
3 111 93 127 
3 112 64 111 
3 128 77 112 
3 108 77 129 
3 113 130 78 
3 78 131 102 
3 132 133 134 
3 98 120 94 
3 121 135 136 
3 68 122 120 
3 106 121 137 
3 102 138 122 
3 110 104 139 
3 104 123 140 
3 123 106 140 
3 124 72 125 
3 141 125 108 
3 127 109 126 
3 126 110 142 
3 143 111 127 
3 128 112 111 
3 129 77 128 
3 144 108 129 
3 78 130 131 
3 131 145 102 
3 94 120 146 
3 119 147 148 
3 135 149 136 
3 121 136 137 
3 122 138 120 
3 106 137 150 
3 102 151 138 
3 110 139 142 
3 104 140 139 
3 140 106 152 
3 141 124 125 
3 141 108 153 
3 127 126 154 
3 126 142 155 
3 156 111 143 
3 143 127 157 
3 128 111 156 
3 144 129 128 
3 153 108 144 
3 130 145 131 
3 102 145 151 
3 120 158 146 
3 159 160 161 
3 136 149 162 
3 137 136 150 
3 120 138 163 
3 106 150 152 
3 151 164 138 
3 142 139 165 
3 139 140 165 
3 140 152 166 
3 167 124 141 
3 168 141 153 
3 154 126 169 
3 157 127 154 
3 155 142 170 
3 169 126 155 
3 171 156 143 
3 171 143 157 
3 172 128 156 
3 144 128 173 
3 168 153 144 
3 130 174 145 
3 145 164 151 
3 175 176 177 
3 120 163 158 
3 149 178 179 
3 149 179 162 
3 136 162 180 
3 150 136 181 
3 138 182 163 
3 152 150 166 
3 138 164 183 
3 142 165 184 
3 165 140 185 
3 140 166 185 
3 186 167 141 
3 187 141 168 
3 157 154 169 
3 169 155 170 
3 170 142 184 
3 172 156 171 
3 171 157 188 
3 173 128 172 
3 189 144 173 
3 168 144 190 
3 174 191 145 
3 145 192 164 
3 193 194 195 
3 163 182 158 
3 178 196 179 
3 162 179 180 
3 136 180 181 
3 150 181 197 
3 138 183 182 
3 166 150 198 
3 184 165 199 
3 165 185 200 
3 185 166 200 
3 186 141 187 
3 201 187 168 
3 157 169 202 
3 169 170 203 
3 170 184 204 
3 205 172 171 
3 188 157 206 
3 207 171 188 
3 189 173 172 
3 190 144 189 
3 208 168 190 
3 145 191 192 
3 209 210 211 
3 158 182 212 
3 179 196 213 
3 180 179 214 
3 181 180 197 
3 150 197 198 
3 166 198 215 
3 184 199 204 
3 165 200 199 
3 200 166 216 
3 201 186 187 
3 201 168 217 
3 202 169 218 
3 206 157 202 
3 203 170 219 
3 218 169 203 
3 170 204 220 
3 221 172 205 
3 205 171 207 
3 207 188 206 
3 189 172 221 
3 208 190 189 
3 217 168 208 
3 179 213 222 
3 179 222 214 
3 180 214 223 
3 197 180 224 
3 198 197 215 
3 166 215 216 
3 204 199 225 
3 199 200 225 
3 200 216 226 
3 227 186 201 
3 206 202 218 
3 218 203 219 
3 219 170 220 
3 220 204 228 
3 229 221 205 
3 229 205 207 
3 207 206 230 
3 231 189 221 
3 208 189 232 
3 214 222 223 
3 180 223 224 
3 197 224 233 
3 215 197 234 
3 216 215 226 
3 204 225 235 
3 225 200 236 
3 200 226 236 
3 206 218 237 
3 218 219 238 
3 219 220 228 
3 228 204 235 
3 231 221 229 
3 229 207 239 
3 230 206 240 
3 241 207 230 
3 232 189 231 
3 223 222 242 
3 224 223 233 
3 197 233 234 
3 215 234 243 
3 226 215 244 
3 237 218 245 
3 240 206 237 
3 238 219 246 
3 245 218 238 
3 219 228 247 
3 248 231 229 
3 239 207 241 
3 249 229 239 
3 241 230 240 
3 223 242 250 
3 233 223 251 
3 234 233 243 
3 215 243 244 
3 240 237 245 
3 245 238 246 
3 246 219 247 
3 248 229 249 
3 249 239 241 
3 241 240 252 
3 223 250 251 
3 233 251 253 
3 243 233 254 
3 240 245 255 
3 245 246 256 
3 249 241 257 
3 252 240 258 
3 259 241 252 
3 251 250 253 
3 233 253 254 
3 255 245 260 
3 258 240 255 
3 260 245 256 
3 257 241 259 
3 259 252 258 
3 253 250 261 
3 258 255 260 
3 259 258 262 
3 258 260 263 
3 262 258 264 
3 264 258 263 
