ply
format ascii 1.0
comment created by MATLAB ply_write
element vertex 225
property float x
property float y
property float z
element face 392
property list uchar uchar vertex_indices
end_header
-1000.000000 -1000.000000 1414.213562 
-857.142857 -1000.000000 1317.077780 
-714.285714 -1000.000000 1228.903610 
-571.428571 -1000.000000 1151.751107 
-428.571429 -1000.000000 1087.967587 
-285.714286 -1000.000000 1040.015698 
-142.857143 -1000.000000 1010.152545 
0.000000 -1000.000000 1000.000000 
142.857143 -1000.000000 1010.152545 
285.714286 -1000.000000 1040.015698 
428.571429 -1000.000000 1087.967587 
571.428571 -1000.000000 1151.751107 
714.285714 -1000.000000 1228.903610 
857.142857 -1000.000000 1317.077780 
1000.000000 -1000.000000 1414.213562 
-1000.000000 -857.142857 1317.077780 
-857.142857 -857.142857 1212.183053 
-714.285714 -857.142857 1115.749954 
-571.428571 -857.142857 1030.157507 
-428.571429 -857.142857 958.314847 
-285.714286 -857.142857 903.507903 
-142.857143 -857.142857 868.966076 
0.000000 -857.142857 857.142857 
142.857143 -857.142857 868.966076 
285.714286 -857.142857 903.507903 
428.571429 -857.142857 958.314847 
571.428571 -857.142857 1030.157507 
714.285714 -857.142857 1115.749954 
857.142857 -857.142857 1212.183053 
1000.000000 -857.142857 1317.077780 
-1000.000000 -714.285714 1228.903610 
-857.142857 -714.285714 1115.749954 
-714.285714 -714.285714 1010.152545 
-571.428571 -714.285714 914.732034 
-428.571429 -714.285714 832.993128 
-285.714286 -714.285714 769.309258 
-142.857143 -714.285714 728.431359 
0.000000 -714.285714 714.285714 
142.857143 -714.285714 728.431359 
285.714286 -714.285714 769.309258 
428.571429 -714.285714 832.993128 
571.428571 -714.285714 914.732034 
714.285714 -714.285714 1010.152545 
857.142857 -714.285714 1115.749954 
1000.000000 -714.285714 1228.903610 
-1000.000000 -571.428571 1151.751107 
-857.142857 -571.428571 1030.157507 
-714.285714 -571.428571 914.732034 
-571.428571 -571.428571 808.122036 
-428.571429 -571.428571 714.285714 
-285.714286 -571.428571 638.876565 
-142.857143 -571.428571 589.015089 
0.000000 -571.428571 571.428571 
142.857143 -571.428571 589.015089 
285.714286 -571.428571 638.876565 
428.571429 -571.428571 714.285714 
571.428571 -571.428571 808.122036 
714.285714 -571.428571 914.732034 
857.142857 -571.428571 1030.157507 
1000.000000 -571.428571 1151.751107 
-1000.000000 -428.571429 1087.967587 
-857.142857 -428.571429 958.314847 
-714.285714 -428.571429 832.993128 
-571.428571 -428.571429 714.285714 
-428.571429 -428.571429 606.091527 
-285.714286 -428.571429 515.078754 
-142.857143 -428.571429 451.753951 
0.000000 -428.571429 428.571429 
142.857143 -428.571429 451.753951 
285.714286 -428.571429 515.078754 
428.571429 -428.571429 606.091527 
571.428571 -428.571429 714.285714 
714.285714 -428.571429 832.993128 
857.142857 -428.571429 958.314847 
1000.000000 -428.571429 1087.967587 
-1000.000000 -285.714286 1040.015698 
-857.142857 -285.714286 903.507903 
-714.285714 -285.714286 769.309258 
-571.428571 -285.714286 638.876565 
-428.571429 -285.714286 515.078754 
-285.714286 -285.714286 404.061018 
-142.857143 -285.714286 319.438282 
0.000000 -285.714286 285.714286 
142.857143 -285.714286 319.438282 
285.714286 -285.714286 404.061018 
428.571429 -285.714286 515.078754 
571.428571 -285.714286 638.876565 
714.285714 -285.714286 769.309258 
857.142857 -285.714286 903.507903 
1000.000000 -285.714286 1040.015698 
-1000.000000 -142.857143 1010.152545 
-857.142857 -142.857143 868.966076 
-714.285714 -142.857143 728.431359 
-571.428571 -142.857143 589.015089 
-428.571429 -142.857143 451.753951 
-285.714286 -142.857143 319.438282 
-142.857143 -142.857143 202.030509 
0.000000 -142.857143 142.857143 
142.857143 -142.857143 202.030509 
285.714286 -142.857143 319.438282 
428.571429 -142.857143 451.753951 
571.428571 -142.857143 589.015089 
714.285714 -142.857143 728.431359 
857.142857 -142.857143 868.966076 
1000.000000 -142.857143 1010.152545 
-1000.000000 0.000000 1000.000000 
-857.142857 0.000000 857.142857 
-714.285714 0.000000 714.285714 
-571.428571 0.000000 571.428571 
-428.571429 0.000000 428.571429 
-285.714286 0.000000 285.714286 
-142.857143 0.000000 142.857143 
0.000000 0.000000 0.000000 
142.857143 0.000000 142.857143 
285.714286 0.000000 285.714286 
428.571429 0.000000 428.571429 
571.428571 0.000000 571.428571 
714.285714 0.000000 714.285714 
857.142857 0.000000 857.142857 
1000.000000 0.000000 1000.000000 
-1000.000000 142.857143 1010.152545 
-857.142857 142.857143 868.966076 
-714.285714 142.857143 728.431359 
-571.428571 142.857143 589.015089 
-428.571429 142.857143 451.753951 
-285.714286 142.857143 319.438282 
-142.857143 142.857143 202.030509 
0.000000 142.857143 142.857143 
142.857143 142.857143 202.030509 
285.714286 142.857143 319.438282 
428.571429 142.857143 451.753951 
571.428571 142.857143 589.015089 
714.285714 142.857143 728.431359 
857.142857 142.857143 868.966076 
1000.000000 142.857143 1010.152545 
-1000.000000 285.714286 1040.015698 
-857.142857 285.714286 903.507903 
-714.285714 285.714286 769.309258 
-571.428571 285.714286 638.876565 
-428.571429 285.714286 515.078754 
-285.714286 285.714286 404.061018 
-142.857143 285.714286 319.438282 
0.000000 285.714286 285.714286 
142.857143 285.714286 319.438282 
285.714286 285.714286 404.061018 
428.571429 285.714286 515.078754 
571.428571 285.714286 638.876565 
714.285714 285.714286 769.309258 
857.142857 285.714286 903.507903 
1000.000000 285.714286 1040.015698 
-1000.000000 428.571429 1087.967587 
-857.142857 428.571429 958.314847 
-714.285714 428.571429 832.993128 
-571.428571 428.571429 714.285714 
-428.571429 428.571429 606.091527 
-285.714286 428.571429 515.078754 
-142.857143 428.571429 451.753951 
0.000000 428.571429 428.571429 
142.857143 428.571429 451.753951 
285.714286 428.571429 515.078754 
428.571429 428.571429 606.091527 
571.428571 428.571429 714.285714 
714.285714 428.571429 832.993128 
857.142857 428.571429 958.314847 
1000.000000 428.571429 1087.967587 
-1000.000000 571.428571 1151.751107 
-857.142857 571.428571 1030.157507 
-714.285714 571.428571 914.732034 
-571.428571 571.428571 808.122036 
-428.571429 571.428571 714.285714 
-285.714286 571.428571 638.876565 
-142.857143 571.428571 589.015089 
0.000000 571.428571 571.428571 
142.857143 571.428571 589.015089 
285.714286 571.428571 638.876565 
428.571429 571.428571 714.285714 
571.428571 571.428571 808.122036 
714.285714 571.428571 914.732034 
857.142857 571.428571 1030.157507 
1000.000000 571.428571 1151.751107 
-1000.000000 714.285714 1228.903610 
-857.142857 714.285714 1115.749954 
-714.285714 714.285714 1010.152545 
-571.428571 714.285714 914.732034 
-428.571429 714.285714 832.993128 
-285.714286 714.285714 769.309258 
-142.857143 714.285714 728.431359 
0.000000 714.285714 714.285714 
142.857143 714.285714 728.431359 
285.714286 714.285714 769.309258 
428.571429 714.285714 832.993128 
571.428571 714.285714 914.732034 
714.285714 714.285714 1010.152545 
857.142857 714.285714 1115.749954 
1000.000000 714.285714 1228.903610 
-1000.000000 857.142857 1317.077780 
-857.142857 857.142857 1212.183053 
-714.285714 857.142857 1115.749954 
-571.428571 857.142857 1030.157507 
-428.571429 857.142857 958.314847 
-285.714286 857.142857 903.507903 
-142.857143 857.142857 868.966076 
0.000000 857.142857 857.142857 
142.857143 857.142857 868.966076 
285.714286 857.142857 903.507903 
428.571429 857.142857 958.314847 
571.428571 857.142857 1030.157507 
714.285714 857.142857 1115.749954 
857.142857 857.142857 1212.183053 
1000.000000 857.142857 1317.077780 
-1000.000000 1000.000000 1414.213562 
-857.142857 1000.000000 1317.077780 
-714.285714 1000.000000 1228.903610 
-571.428571 1000.000000 1151.751107 
-428.571429 1000.000000 1087.967587 
-285.714286 1000.000000 1040.015698 
-142.857143 1000.000000 1010.152545 
0.000000 1000.000000 1000.000000 
142.857143 1000.000000 1010.152545 
285.714286 1000.000000 1040.015698 
428.571429 1000.000000 1087.967587 
571.428571 1000.000000 1151.751107 
714.285714 1000.000000 1228.903610 
857.142857 1000.000000 1317.077780 
1000.000000 1000.000000 1414.213562 
3 0 1 15 
3 1 2 16 
3 2 3 17 
3 3 4 18 
3 4 5 19 
3 5 6 20 
3 6 7 21 
3 7 8 22 
3 8 9 23 
3 9 10 24 
3 10 11 25 
3 11 12 26 
3 12 13 27 
3 13 14 28 
3 15 16 30 
3 16 17 31 
3 17 18 32 
3 18 19 33 
3 19 20 34 
3 20 21 35 
3 21 22 36 
3 22 23 37 
3 23 24 38 
3 24 25 39 
3 25 26 40 
3 26 27 41 
3 27 28 42 
3 28 29 43 
3 30 31 45 
3 31 32 46 
3 32 33 47 
3 33 34 48 
3 34 35 49 
3 35 36 50 
3 36 37 51 
3 37 38 52 
3 38 39 53 
3 39 40 54 
3 40 41 55 
3 41 42 56 
3 42 43 57 
3 43 44 58 
3 45 46 60 
3 46 47 61 
3 47 48 62 
3 48 49 63 
3 49 50 64 
3 50 51 65 
3 51 52 66 
3 52 53 67 
3 53 54 68 
3 54 55 69 
3 55 56 70 
3 56 57 71 
3 57 58 72 
3 58 59 73 
3 60 61 75 
3 61 62 76 
3 62 63 77 
3 63 64 78 
3 64 65 79 
3 65 66 80 
3 66 67 81 
3 67 68 82 
3 68 69 83 
3 69 70 84 
3 70 71 85 
3 71 72 86 
3 72 73 87 
3 73 74 88 
3 75 76 90 
3 76 77 91 
3 77 78 92 
3 78 79 93 
3 79 80 94 
3 80 81 95 
3 81 82 96 
3 82 83 97 
3 83 84 98 
3 84 85 99 
3 85 86 100 
3 86 87 101 
3 87 88 102 
3 88 89 103 
3 90 91 105 
3 91 92 106 
3 92 93 107 
3 93 94 108 
3 94 95 109 
3 95 96 110 
3 96 97 111 
3 97 98 112 
3 98 99 113 
3 99 100 114 
3 100 101 115 
3 101 102 116 
3 102 103 117 
3 103 104 118 
3 105 106 120 
3 106 107 121 
3 107 108 122 
3 108 109 123 
3 109 110 124 
3 110 111 125 
3 111 112 126 
3 112 113 127 
3 113 114 128 
3 114 115 129 
3 115 116 130 
3 116 117 131 
3 117 118 132 
3 118 119 133 
3 120 121 135 
3 121 122 136 
3 122 123 137 
3 123 124 138 
3 124 125 139 
3 125 126 140 
3 126 127 141 
3 127 128 142 
3 128 129 143 
3 129 130 144 
3 130 131 145 
3 131 132 146 
3 132 133 147 
3 133 134 148 
3 135 136 150 
3 136 137 151 
3 137 138 152 
3 138 139 153 
3 139 140 154 
3 140 141 155 
3 141 142 156 
3 142 143 157 
3 143 144 158 
3 144 145 159 
3 145 146 160 
3 146 147 161 
3 147 148 162 
3 148 149 163 
3 150 151 165 
3 151 152 166 
3 152 153 167 
3 153 154 168 
3 154 155 169 
3 155 156 170 
3 156 157 171 
3 157 158 172 
3 158 159 173 
3 159 160 174 
3 160 161 175 
3 161 162 176 
3 162 163 177 
3 163 164 178 
3 165 166 180 
3 166 167 181 
3 167 168 182 
3 168 169 183 
3 169 170 184 
3 170 171 185 
3 171 172 186 
3 172 173 187 
3 173 174 188 
3 174 175 189 
3 175 176 190 
3 176 177 191 
3 177 178 192 
3 178 179 193 
3 180 181 195 
3 181 182 196 
3 182 183 197 
3 183 184 198 
3 184 185 199 
3 185 186 200 
3 186 187 201 
3 187 188 202 
3 188 189 203 
3 189 190 204 
3 190 191 205 
3 191 192 206 
3 192 193 207 
3 193 194 208 
3 195 196 210 
3 196 197 211 
3 197 198 212 
3 198 199 213 
3 199 200 214 
3 200 201 215 
3 201 202 216 
3 202 203 217 
3 203 204 218 
3 204 205 219 
3 205 206 220 
3 206 207 221 
3 207 208 222 
3 208 209 223 
3 1 16 15 
3 2 17 16 
3 3 18 17 
3 4 19 18 
3 5 20 19 
3 6 21 20 
3 7 22 21 
3 8 23 22 
3 9 24 23 
3 10 25 24 
3 11 26 25 
3 12 27 26 
3 13 28 27 
3 14 29 28 
3 16 31 30 
3 17 32 31 
3 18 33 32 
3 19 34 33 
3 20 35 34 
3 21 36 35 
3 22 37 36 
3 23 38 37 
3 24 39 38 
3 25 40 39 
3 26 41 40 
3 27 42 41 
3 28 43 42 
3 29 44 43 
3 31 46 45 
3 32 47 46 
3 33 48 47 
3 34 49 48 
3 35 50 49 
3 36 51 50 
3 37 52 51 
3 38 53 52 
3 39 54 53 
3 40 55 54 
3 41 56 55 
3 42 57 56 
3 43 58 57 
3 44 59 58 
3 46 61 60 
3 47 62 61 
3 48 63 62 
3 49 64 63 
3 50 65 64 
3 51 66 65 
3 52 67 66 
3 53 68 67 
3 54 69 68 
3 55 70 69 
3 56 71 70 
3 57 72 71 
3 58 73 72 
3 59 74 73 
3 61 76 75 
3 62 77 76 
3 63 78 77 
3 64 79 78 
3 65 80 79 
3 66 81 80 
3 67 82 81 
3 68 83 82 
3 69 84 83 
3 70 85 84 
3 71 86 85 
3 72 87 86 
3 73 88 87 
3 74 89 88 
3 76 91 90 
3 77 92 91 
3 78 93 92 
3 79 94 93 
3 80 95 94 
3 81 96 95 
3 82 97 96 
3 83 98 97 
3 84 99 98 
3 85 100 99 
3 86 101 100 
3 87 102 101 
3 88 103 102 
3 89 104 103 
3 91 106 105 
3 92 107 106 
3 93 108 107 
3 94 109 108 
3 95 110 109 
3 96 111 110 
3 97 112 111 
3 98 113 112 
3 99 114 113 
3 100 115 114 
3 101 116 115 
3 102 117 116 
3 103 118 117 
3 104 119 118 
3 106 121 120 
3 107 122 121 
3 108 123 122 
3 109 124 123 
3 110 125 124 
3 111 126 125 
3 112 127 126 
3 113 128 127 
3 114 129 128 
3 115 130 129 
3 116 131 130 
3 117 132 131 
3 118 133 132 
3 119 134 133 
3 121 136 135 
3 122 137 136 
3 123 138 137 
3 124 139 138 
3 125 140 139 
3 126 141 140 
3 127 142 141 
3 128 143 142 
3 129 144 143 
3 130 145 144 
3 131 146 145 
3 132 147 146 
3 133 148 147 
3 134 149 148 
3 136 151 150 
3 137 152 151 
3 138 153 152 
3 139 154 153 
3 140 155 154 
3 141 156 155 
3 142 157 156 
3 143 158 157 
3 144 159 158 
3 145 160 159 
3 146 161 160 
3 147 162 161 
3 148 163 162 
3 149 164 163 
3 151 166 165 
3 152 167 166 
3 153 168 167 
3 154 169 168 
3 155 170 169 
3 156 171 170 
3 157 172 171 
3 158 173 172 
3 159 174 173 
3 160 175 174 
3 161 176 175 
3 162 177 176 
3 163 178 177 
3 164 179 178 
3 166 181 180 
3 167 182 181 
3 168 183 182 
3 169 184 183 
3 170 185 184 
3 171 186 185 
3 172 187 186 
3 173 188 187 
3 174 189 188 
3 175 190 189 
3 176 191 190 
3 177 192 191 
3 178 193 192 
3 179 194 193 
3 181 196 195 
3 182 197 196 
3 183 198 197 
3 184 199 198 
3 185 200 199 
3 186 201 200 
3 187 202 201 
3 188 203 202 
3 189 204 203 
3 190 205 204 
3 191 206 205 
3 192 207 206 
3 193 208 207 
3 194 209 208 
3 196 211 210 
3 197 212 211 
3 198 213 212 
3 199 214 213 
3 200 215 214 
3 201 216 215 
3 202 217 216 
3 203 218 217 
3 204 219 218 
3 205 220 219 
3 206 221 220 
3 207 222 221 
3 208 223 222 
3 209 224 223 
