ply
format ascii 1.0
comment created by MATLAB ply_write
element vertex 220
property short x
property float y
property float z
element face 380
property list uchar uchar vertex_indices
end_header
-1000 -1000.000000 1414.213562 
-800 -1000.000000 1280.624847 
-600 -1000.000000 1166.190379 
-400 -1000.000000 1077.032961 
-200 -1000.000000 1019.803903 
0 -1000.000000 1000.000000 
200 -1000.000000 1019.803903 
400 -1000.000000 1077.032961 
600 -1000.000000 1166.190379 
800 -1000.000000 1280.624847 
1000 -1000.000000 1414.213562 
-1000 -894.736842 1341.847240 
-800 -894.736842 1200.230818 
-600 -894.736842 1077.290126 
-400 -894.736842 980.078577 
-200 -894.736842 916.817330 
0 -894.736842 894.736842 
200 -894.736842 916.817330 
400 -894.736842 980.078577 
600 -894.736842 1077.290126 
800 -894.736842 1200.230818 
1000 -894.736842 1341.847240 
-1000 -789.473684 1274.075625 
-800 -789.473684 1123.952267 
-600 -789.473684 991.599061 
-400 -789.473684 885.024688 
-200 -789.473684 814.413100 
0 -789.473684 789.473684 
200 -789.473684 814.413100 
400 -789.473684 885.024688 
600 -789.473684 991.599061 
800 -789.473684 1123.952267 
1000 -789.473684 1274.075625 
-1000 -684.210526 1211.669940 
-800 -684.210526 1052.684209 
-600 -684.210526 910.024200 
-400 -684.210526 792.555389 
-200 -684.210526 712.842230 
0 -684.210526 684.210526 
200 -684.210526 712.842230 
400 -684.210526 792.555389 
600 -684.210526 910.024200 
800 -684.210526 1052.684209 
1000 -684.210526 1211.669940 
-1000 -578.947368 1155.499916 
-800 -578.947368 987.512053 
-600 -578.947368 833.774583 
-400 -578.947368 703.690312 
-200 -578.947368 612.519433 
0 -578.947368 578.947368 
200 -578.947368 612.519433 
400 -578.947368 703.690312 
600 -578.947368 833.774583 
800 -578.947368 987.512053 
1000 -578.947368 1155.499916 
-1000 -473.684211 1106.515581 
-800 -473.684211 929.718630 
-600 -473.684211 764.445375 
-400 -473.684211 619.981235 
-200 -473.684211 514.175779 
0 -473.684211 473.684211 
200 -473.684211 514.175779 
400 -473.684211 619.981235 
600 -473.684211 764.445375 
800 -473.684211 929.718630 
1000 -473.684211 1106.515581 
-1000 -368.421053 1065.708249 
-800 -368.421053 880.757669 
-600 -368.421053 704.083853 
-400 -368.421053 543.814373 
-200 -368.421053 419.206479 
0 -368.421053 368.421053 
200 -368.421053 419.206479 
400 -368.421053 543.814373 
600 -368.421053 704.083853 
800 -368.421053 880.757669 
1000 -368.421053 1065.708249 
-1000 -263.157895 1034.046458 
-800 -263.157895 842.171050 
-600 -263.157895 655.173319 
-400 -263.157895 478.802754 
-200 -263.157895 330.533020 
0 -263.157895 263.157895 
200 -263.157895 330.533020 
400 -263.157895 478.802754 
600 -263.157895 655.173319 
800 -263.157895 842.171050 
1000 -263.157895 1034.046458 
-1000 -157.894737 1012.388635 
-800 -157.894737 815.432859 
-600 -157.894737 620.427875 
-400 -157.894737 430.035752 
-200 -157.894737 254.815125 
0 -157.894737 157.894737 
200 -157.894737 254.815125 
400 -157.894737 430.035752 
600 -157.894737 620.427875 
800 -157.894737 815.432859 
1000 -157.894737 1012.388635 
-1000 -52.631579 1001.384084 
-800 -52.631579 801.729433 
-600 -52.631579 602.303979 
-400 -52.631579 403.447745 
-200 -52.631579 206.809292 
0 -52.631579 52.631579 
200 -52.631579 206.809292 
400 -52.631579 403.447745 
600 -52.631579 602.303979 
800 -52.631579 801.729433 
1000 -52.631579 1001.384084 
-1000 52.631579 1001.384084 
-800 52.631579 801.729433 
-600 52.631579 602.303979 
-400 52.631579 403.447745 
-200 52.631579 206.809292 
0 52.631579 52.631579 
200 52.631579 206.809292 
400 52.631579 403.447745 
600 52.631579 602.303979 
800 52.631579 801.729433 
1000 52.631579 1001.384084 
-1000 157.894737 1012.388635 
-800 157.894737 815.432859 
-600 157.894737 620.427875 
-400 157.894737 430.035752 
-200 157.894737 254.815125 
0 157.894737 157.894737 
200 157.894737 254.815125 
400 157.894737 430.035752 
600 157.894737 620.427875 
800 157.894737 815.432859 
1000 157.894737 1012.388635 
-1000 263.157895 1034.046458 
-800 263.157895 842.171050 
-600 263.157895 655.173319 
-400 263.157895 478.802754 
-200 263.157895 330.533020 
0 263.157895 263.157895 
200 263.157895 330.533020 
400 263.157895 478.802754 
600 263.157895 655.173319 
800 263.157895 842.171050 
1000 263.157895 1034.046458 
-1000 368.421053 1065.708249 
-800 368.421053 880.757669 
-600 368.421053 704.083853 
-400 368.421053 543.814373 
-200 368.421053 419.206479 
0 368.421053 368.421053 
200 368.421053 419.206479 
400 368.421053 543.814373 
600 368.421053 704.083853 
800 368.421053 880.757669 
1000 368.421053 1065.708249 
-1000 473.684211 1106.515581 
-800 473.684211 929.718630 
-600 473.684211 764.445375 
-400 473.684211 619.981235 
-200 473.684211 514.175779 
0 473.684211 473.684211 
200 473.684211 514.175779 
400 473.684211 619.981235 
600 473.684211 764.445375 
800 473.684211 929.718630 
1000 473.684211 1106.515581 
-1000 578.947368 1155.499916 
-800 578.947368 987.512053 
-600 578.947368 833.774583 
-400 578.947368 703.690312 
-200 578.947368 612.519433 
0 578.947368 578.947368 
200 578.947368 612.519433 
400 578.947368 703.690312 
600 578.947368 833.774583 
800 578.947368 987.512053 
1000 578.947368 1155.499916 
-1000 684.210526 1211.669940 
-800 684.210526 1052.684209 
-600 684.210526 910.024200 
-400 684.210526 792.555389 
-200 684.210526 712.842230 
0 684.210526 684.210526 
200 684.210526 712.842230 
400 684.210526 792.555389 
600 684.210526 910.024200 
800 684.210526 1052.684209 
1000 684.210526 1211.669940 
-1000 789.473684 1274.075625 
-800 789.473684 1123.952267 
-600 789.473684 991.599061 
-400 789.473684 885.024688 
-200 789.473684 814.413100 
0 789.473684 789.473684 
200 789.473684 814.413100 
400 789.473684 885.024688 
600 789.473684 991.599061 
800 789.473684 1123.952267 
1000 789.473684 1274.075625 
-1000 894.736842 1341.847240 
-800 894.736842 1200.230818 
-600 894.736842 1077.290126 
-400 894.736842 980.078577 
-200 894.736842 916.817330 
0 894.736842 894.736842 
200 894.736842 916.817330 
400 894.736842 980.078577 
600 894.736842 1077.290126 
800 894.736842 1200.230818 
1000 894.736842 1341.847240 
-1000 1000.000000 1414.213562 
-800 1000.000000 1280.624847 
-600 1000.000000 1166.190379 
-400 1000.000000 1077.032961 
-200 1000.000000 1019.803903 
0 1000.000000 1000.000000 
200 1000.000000 1019.803903 
400 1000.000000 1077.032961 
600 1000.000000 1166.190379 
800 1000.000000 1280.624847 
1000 1000.000000 1414.213562 
3 0 1 11 
3 1 2 12 
3 2 3 13 
3 3 4 14 
3 4 5 15 
3 5 6 16 
3 6 7 17 
3 7 8 18 
3 8 9 19 
3 9 10 20 
3 11 12 22 
3 12 13 23 
3 13 14 24 
3 14 15 25 
3 15 16 26 
3 16 17 27 
3 17 18 28 
3 18 19 29 
3 19 20 30 
3 20 21 31 
3 22 23 33 
3 23 24 34 
3 24 25 35 
3 25 26 36 
3 26 27 37 
3 27 28 38 
3 28 29 39 
3 29 30 40 
3 30 31 41 
3 31 32 42 
3 33 34 44 
3 34 35 45 
3 35 36 46 
3 36 37 47 
3 37 38 48 
3 38 39 49 
3 39 40 50 
3 40 41 51 
3 41 42 52 
3 42 43 53 
3 44 45 55 
3 45 46 56 
3 46 47 57 
3 47 48 58 
3 48 49 59 
3 49 50 60 
3 50 51 61 
3 51 52 62 
3 52 53 63 
3 53 54 64 
3 55 56 66 
3 56 57 67 
3 57 58 68 
3 58 59 69 
3 59 60 70 
3 60 61 71 
3 61 62 72 
3 62 63 73 
3 63 64 74 
3 64 65 75 
3 66 67 77 
3 67 68 78 
3 68 69 79 
3 69 70 80 
3 70 71 81 
3 71 72 82 
3 72 73 83 
3 73 74 84 
3 74 75 85 
3 75 76 86 
3 77 78 88 
3 78 79 89 
3 79 80 90 
3 80 81 91 
3 81 82 92 
3 82 83 93 
3 83 84 94 
3 84 85 95 
3 85 86 96 
3 86 87 97 
3 88 89 99 
3 89 90 100 
3 90 91 101 
3 91 92 102 
3 92 93 103 
3 93 94 104 
3 94 95 105 
3 95 96 106 
3 96 97 107 
3 97 98 108 
3 99 100 110 
3 100 101 111 
3 101 102 112 
3 102 103 113 
3 103 104 114 
3 104 105 115 
3 105 106 116 
3 106 107 117 
3 107 108 118 
3 108 109 119 
3 110 111 121 
3 111 112 122 
3 112 113 123 
3 113 114 124 
3 114 115 125 
3 115 116 126 
3 116 117 127 
3 117 118 128 
3 118 119 129 
3 119 120 130 
3 121 122 132 
3 122 123 133 
3 123 124 134 
3 124 125 135 
3 125 126 136 
3 126 127 137 
3 127 128 138 
3 128 129 139 
3 129 130 140 
3 130 131 141 
3 132 133 143 
3 133 134 144 
3 134 135 145 
3 135 136 146 
3 136 137 147 
3 137 138 148 
3 138 139 149 
3 139 140 150 
3 140 141 151 
3 141 142 152 
3 143 144 154 
3 144 145 155 
3 145 146 156 
3 146 147 157 
3 147 148 158 
3 148 149 159 
3 149 150 160 
3 150 151 161 
3 151 152 162 
3 152 153 163 
3 154 155 165 
3 155 156 166 
3 156 157 167 
3 157 158 168 
3 158 159 169 
3 159 160 170 
3 160 161 171 
3 161 162 172 
3 162 163 173 
3 163 164 174 
3 165 166 176 
3 166 167 177 
3 167 168 178 
3 168 169 179 
3 169 170 180 
3 170 171 181 
3 171 172 182 
3 172 173 183 
3 173 174 184 
3 174 175 185 
3 176 177 187 
3 177 178 188 
3 178 179 189 
3 179 180 190 
3 180 181 191 
3 181 182 192 
3 182 183 193 
3 183 184 194 
3 184 185 195 
3 185 186 196 
3 187 188 198 
3 188 189 199 
3 189 190 200 
3 190 191 201 
3 191 192 202 
3 192 193 203 
3 193 194 204 
3 194 195 205 
3 195 196 206 
3 196 197 207 
3 198 199 209 
3 199 200 210 
3 200 201 211 
3 201 202 212 
3 202 203 213 
3 203 204 214 
3 204 205 215 
3 205 206 216 
3 206 207 217 
3 207 208 218 
3 1 12 11 
3 2 13 12 
3 3 14 13 
3 4 15 14 
3 5 16 15 
3 6 17 16 
3 7 18 17 
3 8 19 18 
3 9 20 19 
3 10 21 20 
3 12 23 22 
3 13 24 23 
3 14 25 24 
3 15 26 25 
3 16 27 26 
3 17 28 27 
3 18 29 28 
3 19 30 29 
3 20 31 30 
3 21 32 31 
3 23 34 33 
3 24 35 34 
3 25 36 35 
3 26 37 36 
3 27 38 37 
3 28 39 38 
3 29 40 39 
3 30 41 40 
3 31 42 41 
3 32 43 42 
3 34 45 44 
3 35 46 45 
3 36 47 46 
3 37 48 47 
3 38 49 48 
3 39 50 49 
3 40 51 50 
3 41 52 51 
3 42 53 52 
3 43 54 53 
3 45 56 55 
3 46 57 56 
3 47 58 57 
3 48 59 58 
3 49 60 59 
3 50 61 60 
3 51 62 61 
3 52 63 62 
3 53 64 63 
3 54 65 64 
3 56 67 66 
3 57 68 67 
3 58 69 68 
3 59 70 69 
3 60 71 70 
3 61 72 71 
3 62 73 72 
3 63 74 73 
3 64 75 74 
3 65 76 75 
3 67 78 77 
3 68 79 78 
3 69 80 79 
3 70 81 80 
3 71 82 81 
3 72 83 82 
3 73 84 83 
3 74 85 84 
3 75 86 85 
3 76 87 86 
3 78 89 88 
3 79 90 89 
3 80 91 90 
3 81 92 91 
3 82 93 92 
3 83 94 93 
3 84 95 94 
3 85 96 95 
3 86 97 96 
3 87 98 97 
3 89 100 99 
3 90 101 100 
3 91 102 101 
3 92 103 102 
3 93 104 103 
3 94 105 104 
3 95 106 105 
3 96 107 106 
3 97 108 107 
3 98 109 108 
3 100 111 110 
3 101 112 111 
3 102 113 112 
3 103 114 113 
3 104 115 114 
3 105 116 115 
3 106 117 116 
3 107 118 117 
3 108 119 118 
3 109 120 119 
3 111 122 121 
3 112 123 122 
3 113 124 123 
3 114 125 124 
3 115 126 125 
3 116 127 126 
3 117 128 127 
3 118 129 128 
3 119 130 129 
3 120 131 130 
3 122 133 132 
3 123 134 133 
3 124 135 134 
3 125 136 135 
3 126 137 136 
3 127 138 137 
3 128 139 138 
3 129 140 139 
3 130 141 140 
3 131 142 141 
3 133 144 143 
3 134 145 144 
3 135 146 145 
3 136 147 146 
3 137 148 147 
3 138 149 148 
3 139 150 149 
3 140 151 150 
3 141 152 151 
3 142 153 152 
3 144 155 154 
3 145 156 155 
3 146 157 156 
3 147 158 157 
3 148 159 158 
3 149 160 159 
3 150 161 160 
3 151 162 161 
3 152 163 162 
3 153 164 163 
3 155 166 165 
3 156 167 166 
3 157 168 167 
3 158 169 168 
3 159 170 169 
3 160 171 170 
3 161 172 171 
3 162 173 172 
3 163 174 173 
3 164 175 174 
3 166 177 176 
3 167 178 177 
3 168 179 178 
3 169 180 179 
3 170 181 180 
3 171 182 181 
3 172 183 182 
3 173 184 183 
3 174 185 184 
3 175 186 185 
3 177 188 187 
3 178 189 188 
3 179 190 189 
3 180 191 190 
3 181 192 191 
3 182 193 192 
3 183 194 193 
3 184 195 194 
3 185 196 195 
3 186 197 196 
3 188 199 198 
3 189 200 199 
3 190 201 200 
3 191 202 201 
3 192 203 202 
3 193 204 203 
3 194 205 204 
3 195 206 205 
3 196 207 206 
3 197 208 207 
3 199 210 209 
3 200 211 210 
3 201 212 211 
3 202 213 212 
3 203 214 213 
3 204 215 214 
3 205 216 215 
3 206 217 216 
3 207 218 217 
3 208 219 218 
